<?xml version="1.0" encoding="utf-8"?>
<!-- Generator: Adobe Illustrator 23.0.2, SVG Export Plug-In . SVG Version: 6.00 Build 0)  -->
<svg version="1.1" xmlns="http://www.w3.org/2000/svg" xmlns:xlink="http://www.w3.org/1999/xlink" x="0px" y="0px"
	 viewBox="0 0 750 500" style="enable-background:new 0 0 750 500;" xml:space="preserve">
<style type="text/css">
	.st0{fill:url(#XMLID_20_);}
	.st1{opacity:0;fill:#FFFFFF;}
	.st2{opacity:0.0294;fill:#FCFCFC;}
	.st3{opacity:0.0588;fill:#FAF9F9;}
	.st4{opacity:0.0882;fill:#F7F6F6;}
	.st5{opacity:0.1176;fill:#F4F3F3;}
	.st6{opacity:0.1471;fill:#F1F0F0;}
	.st7{opacity:0.1765;fill:#EFEDED;}
	.st8{opacity:0.2059;fill:#ECEAEA;}
	.st9{opacity:0.2353;fill:#E9E7E7;}
	.st10{opacity:0.2647;fill:#E7E4E4;}
	.st11{opacity:0.2941;fill:#E4E1E1;}
	.st12{opacity:0.3235;fill:#E1DEDE;}
	.st13{opacity:0.3529;fill:#DFDBDB;}
	.st14{opacity:0.3824;fill:#DCD8D8;}
	.st15{opacity:0.4118;fill:#D9D5D5;}
	.st16{opacity:0.4412;fill:#D6D2D2;}
	.st17{opacity:0.4706;fill:#D4CFCF;}
	.st18{opacity:0.5;fill:#D1CCCC;}
	.st19{opacity:0.5294;fill:#CEC8C8;}
	.st20{opacity:0.5588;fill:#CCC5C5;}
	.st21{opacity:0.5882;fill:#C9C2C2;}
	.st22{opacity:0.6176;fill:#C6BFBF;}
	.st23{opacity:0.6471;fill:#C3BCBC;}
	.st24{opacity:0.6765;fill:#C1B9B9;}
	.st25{opacity:0.7059;fill:#BEB6B6;}
	.st26{opacity:0.7353;fill:#BBB3B3;}
	.st27{opacity:0.7647;fill:#B9B0B0;}
	.st28{opacity:0.7941;fill:#B6ADAD;}
	.st29{opacity:0.8235;fill:#B3AAAA;}
	.st30{opacity:0.8529;fill:#B1A7A7;}
	.st31{opacity:0.8824;fill:#AEA4A4;}
	.st32{opacity:0.9118;fill:#ABA1A1;}
	.st33{opacity:0.9412;fill:#A89E9E;}
	.st34{opacity:0.9706;fill:#A69B9B;}
	.st35{fill:#A39898;}
	.st36{fill:url(#XMLID_21_);}
	.st37{fill:url(#XMLID_23_);}
	.st38{opacity:0.0294;fill:#FDFCFC;}
	.st39{opacity:0.0588;fill:#FAFAFA;}
	.st40{opacity:0.0882;fill:#F8F7F7;}
	.st41{opacity:0.1176;fill:#F6F4F4;}
	.st42{opacity:0.1471;fill:#F3F1F1;}
	.st43{opacity:0.1765;fill:#F1EFEF;}
	.st44{opacity:0.2059;fill:#EFECEC;}
	.st45{opacity:0.2353;fill:#ECE9E9;}
	.st46{opacity:0.2647;fill:#EAE7E7;}
	.st47{opacity:0.2941;fill:#E8E4E4;}
	.st48{opacity:0.3235;fill:#E5E1E1;}
	.st49{opacity:0.3529;fill:#E3DFDF;}
	.st50{opacity:0.3824;fill:#E1DCDC;}
	.st51{opacity:0.4118;fill:#DED9D9;}
	.st52{opacity:0.4412;fill:#DCD6D6;}
	.st53{opacity:0.4706;fill:#DAD4D4;}
	.st54{opacity:0.5;fill:#D8D1D1;}
	.st55{opacity:0.5294;fill:#D5CECE;}
	.st56{opacity:0.5588;fill:#D3CCCC;}
	.st57{opacity:0.5882;fill:#D1C9C9;}
	.st58{opacity:0.6176;fill:#CEC6C6;}
	.st59{opacity:0.6471;fill:#CCC3C3;}
	.st60{opacity:0.6765;fill:#CAC1C1;}
	.st61{opacity:0.7059;fill:#C7BEBE;}
	.st62{opacity:0.7353;fill:#C5BBBB;}
	.st63{opacity:0.7647;fill:#C3B9B9;}
	.st64{opacity:0.7941;fill:#C0B6B6;}
	.st65{opacity:0.8235;fill:#BEB3B3;}
	.st66{opacity:0.8529;fill:#BCB1B1;}
	.st67{opacity:0.8824;fill:#B9AEAE;}
	.st68{opacity:0.9118;fill:#B7ABAB;}
	.st69{opacity:0.9412;fill:#B5A8A8;}
	.st70{opacity:0.9706;fill:#B2A6A6;}
	.st71{fill:#B0A3A3;}
	.st72{opacity:0.61;}
	.st73{fill:url(#XMLID_24_);}
	.st74{fill:url(#XMLID_25_);}
	.st75{fill:url(#XMLID_26_);}
	.st76{fill:url(#XMLID_27_);}
	.st77{fill:url(#XMLID_28_);}
	.st78{fill:url(#XMLID_29_);}
	.st79{fill:url(#XMLID_30_);}
	.st80{fill:url(#XMLID_31_);}
	.st81{fill:url(#XMLID_32_);}
	.st82{fill:url(#XMLID_33_);}
	.st83{fill:url(#XMLID_34_);}
	.st84{fill:url(#XMLID_35_);}
	.st85{fill:url(#XMLID_36_);}
	.st86{fill:url(#XMLID_37_);}
	.st87{fill:url(#XMLID_38_);}
	.st88{fill:url(#XMLID_39_);}
	.st89{fill:url(#XMLID_40_);}
	.st90{fill:url(#XMLID_41_);}
	.st91{fill:url(#XMLID_42_);}
	.st92{fill:url(#XMLID_43_);}
	.st93{fill:url(#XMLID_44_);}
	.st94{fill:url(#XMLID_45_);}
	.st95{fill:url(#XMLID_46_);}
	.st96{fill:url(#XMLID_47_);}
	.st97{fill:url(#XMLID_48_);}
	.st98{fill:url(#XMLID_49_);}
	.st99{fill:url(#XMLID_50_);}
	.st100{fill:url(#XMLID_51_);}
	.st101{fill:#7F7A7A;}
	.st102{font-family:'TwCenMT-CondensedExtraBold';}
	.st103{font-size:21px;}
</style>
<g id="BACKGROUND">
	<radialGradient id="XMLID_20_" cx="221.0002" cy="-18" r="721.3598" gradientUnits="userSpaceOnUse">
		<stop  offset="0" style="stop-color:#FFFFFF"/>
		<stop  offset="1" style="stop-color:#E3D8D8"/>
	</radialGradient>
	<rect id="XMLID_116_" class="st0" width="750" height="500"/>
</g>
<g id="OBJECTS">
	<g id="XMLID_279_">
		<path id="XMLID_18_" class="st1" d="M680.09,124.9c-27.76-25.27-70.87-24.97-98.3,0.65c-18.46,17.24-25.82,41.73-22.09,64.75
			c3.38,20.85-3.94,42.01-18.87,56.94l-1.5,1.5c-15,15-36.28,21.49-57.25,18.32c-7.62-1.15-15.4-1.1-23.01,0.18
			c-20.83,3.48-42.08-2.83-57.02-17.76l-2.23-2.23c-14.94-14.94-22.26-36.1-18.88-56.95c3.85-23.76-4.11-49.08-23.9-66.39
			c-27.02-23.64-67.89-23.76-95.05-0.28c-19.71,17.04-27.84,41.97-24.4,65.53c2.95,20.23-3.37,40.7-17.82,55.15l-4.88,4.88
			c-14.45,14.45-34.92,20.77-55.15,17.82c-22.83-3.33-46.95,4.19-63.93,22.6c-25.33,27.46-25.48,70.33-0.33,97.96
			c28.03,30.79,75.92,31.63,105.03,2.52c17.31-17.31,24.03-41.25,20.16-63.71c-3.57-20.75,3.67-41.89,18.56-56.78l0.51-0.51
			c15.09-15.09,36.5-22.45,57.55-18.93c7.5,1.25,15.15,1.32,22.67,0.22c20.68-3.04,41.61,3.4,56.39,18.18l5.02,5.02
			c14.43,14.43,20.79,34.83,17.95,55.04c-3.2,22.77,4.38,46.77,22.76,63.65c27.67,25.42,70.84,25.31,98.38-0.26
			c18.42-17.1,25.87-41.39,22.35-64.3c-3.2-20.81,4.18-41.86,19.07-56.75l1.96-1.96c14.71-14.71,35.52-21.98,56.06-18.74
			c22.17,3.5,45.65-3.27,62.7-20.31C711.72,200.82,710.88,152.92,680.09,124.9z"/>
		<path class="st2" d="M679.46,124.2c-27.76-25.27-70.87-24.97-98.3,0.65c-18.46,17.24-25.82,41.73-22.09,64.75
			c3.38,20.85-3.94,42.01-18.87,56.94l-1.5,1.5c-15,15-36.28,21.49-57.25,18.32c-7.62-1.15-15.4-1.1-23.01,0.18
			c-20.83,3.48-42.08-2.83-57.02-17.76l-2.23-2.23c-14.94-14.94-22.26-36.1-18.88-56.95c3.85-23.76-4.11-49.08-23.9-66.39
			c-27.02-23.63-67.89-23.76-95.05-0.28c-19.71,17.04-27.84,41.97-24.4,65.53c2.95,20.23-3.37,40.7-17.82,55.15l-4.88,4.88
			c-14.45,14.45-34.92,20.77-55.15,17.82c-22.83-3.33-46.95,4.19-63.93,22.6c-25.33,27.46-25.48,70.33-0.33,97.96
			c28.03,30.79,75.92,31.63,105.03,2.52c17.31-17.31,24.03-41.25,20.16-63.71c-3.57-20.75,3.67-41.89,18.56-56.78l0.51-0.51
			c15.09-15.09,36.5-22.45,57.55-18.93c7.5,1.25,15.15,1.32,22.67,0.22c20.68-3.04,41.61,3.4,56.39,18.18l5.02,5.02
			c14.43,14.43,20.79,34.83,17.95,55.04c-3.2,22.77,4.38,46.77,22.76,63.65c27.67,25.42,70.84,25.31,98.38-0.26
			c18.42-17.1,25.87-41.39,22.35-64.3c-3.2-20.81,4.18-41.86,19.07-56.75l1.96-1.96c14.71-14.71,35.52-21.98,56.06-18.74
			c22.17,3.5,45.65-3.27,62.7-20.31C711.09,200.12,710.25,152.23,679.46,124.2z"/>
		<path class="st3" d="M678.83,123.5c-27.76-25.27-70.87-24.97-98.3,0.65c-18.46,17.24-25.82,41.73-22.09,64.75
			c3.38,20.85-3.94,42.01-18.87,56.94l-1.5,1.5c-15,15-36.28,21.49-57.25,18.32c-7.62-1.15-15.4-1.1-23.01,0.18
			c-20.83,3.48-42.08-2.83-57.02-17.76l-2.23-2.23c-14.94-14.94-22.26-36.1-18.88-56.95c3.85-23.76-4.11-49.08-23.9-66.39
			c-27.02-23.63-67.89-23.76-95.05-0.28c-19.71,17.04-27.84,41.97-24.4,65.53c2.95,20.23-3.37,40.7-17.82,55.15l-4.88,4.88
			c-14.45,14.45-34.92,20.77-55.15,17.82c-22.83-3.33-46.95,4.19-63.93,22.6c-25.33,27.46-25.48,70.33-0.33,97.96
			c28.03,30.79,75.92,31.63,105.03,2.52c17.31-17.31,24.03-41.25,20.16-63.71c-3.57-20.75,3.67-41.89,18.56-56.78l0.51-0.51
			c15.09-15.09,36.5-22.45,57.55-18.93c7.5,1.25,15.15,1.32,22.67,0.22c20.68-3.04,41.61,3.4,56.39,18.18l5.02,5.02
			c14.43,14.43,20.79,34.83,17.95,55.04c-3.2,22.77,4.38,46.77,22.76,63.65c27.67,25.42,70.84,25.31,98.38-0.26
			c18.42-17.1,25.87-41.39,22.35-64.3c-3.2-20.81,4.18-41.86,19.07-56.75l1.96-1.96c14.71-14.71,35.52-21.98,56.06-18.74
			c22.17,3.5,45.65-3.27,62.7-20.31C710.46,199.42,709.62,151.53,678.83,123.5z"/>
		<path class="st4" d="M678.2,122.8c-27.76-25.27-70.87-24.97-98.3,0.65c-18.46,17.24-25.82,41.73-22.09,64.75
			c3.38,20.85-3.94,42.01-18.87,56.94l-1.5,1.5c-15,15-36.28,21.49-57.25,18.32c-7.62-1.15-15.4-1.1-23.01,0.18
			c-20.83,3.48-42.08-2.83-57.02-17.76l-2.23-2.23c-14.94-14.94-22.26-36.1-18.88-56.95c3.85-23.76-4.11-49.08-23.9-66.39
			c-27.02-23.64-67.89-23.76-95.05-0.28c-19.71,17.04-27.84,41.97-24.4,65.53c2.95,20.23-3.37,40.7-17.82,55.15l-4.88,4.88
			c-14.45,14.45-34.92,20.77-55.15,17.82c-22.83-3.33-46.95,4.19-63.93,22.6c-25.33,27.46-25.48,70.33-0.33,97.96
			c28.03,30.79,75.92,31.63,105.03,2.52c17.31-17.31,24.03-41.25,20.16-63.71c-3.57-20.75,3.67-41.89,18.56-56.78l0.51-0.51
			c15.09-15.09,36.5-22.45,57.55-18.93c7.5,1.25,15.15,1.32,22.67,0.22c20.68-3.04,41.61,3.4,56.39,18.18l5.02,5.02
			c14.43,14.43,20.79,34.83,17.95,55.04c-3.2,22.77,4.38,46.77,22.76,63.65c27.67,25.42,70.84,25.31,98.38-0.26
			c18.42-17.1,25.87-41.39,22.35-64.3c-3.2-20.81,4.18-41.86,19.07-56.75l1.96-1.96c14.71-14.71,35.52-21.98,56.06-18.74
			c22.17,3.5,45.65-3.27,62.7-20.31C709.83,198.72,708.99,150.83,678.2,122.8z"/>
		<path class="st5" d="M677.57,122.1c-27.76-25.27-70.87-24.97-98.3,0.65c-18.46,17.24-25.82,41.73-22.09,64.75
			c3.38,20.85-3.94,42.01-18.87,56.94l-1.5,1.5c-15,15-36.28,21.49-57.25,18.32c-7.62-1.15-15.4-1.1-23.01,0.18
			c-20.83,3.48-42.08-2.83-57.02-17.76l-2.23-2.23c-14.94-14.94-22.26-36.1-18.88-56.95c3.85-23.76-4.11-49.08-23.9-66.39
			c-27.02-23.64-67.89-23.76-95.05-0.28c-19.71,17.04-27.84,41.97-24.4,65.53c2.95,20.23-3.37,40.7-17.82,55.15l-4.88,4.88
			c-14.45,14.45-34.92,20.77-55.15,17.82c-22.83-3.33-46.95,4.19-63.93,22.6c-25.33,27.46-25.48,70.33-0.33,97.96
			C121,415.56,168.89,416.4,198,387.29c17.31-17.31,24.03-41.25,20.16-63.71c-3.57-20.75,3.67-41.89,18.56-56.78l0.51-0.51
			c15.09-15.09,36.5-22.45,57.55-18.93c7.5,1.25,15.15,1.32,22.67,0.22c20.68-3.04,41.61,3.4,56.39,18.18l5.02,5.02
			c14.43,14.43,20.79,34.83,17.95,55.04c-3.2,22.77,4.38,46.77,22.76,63.65c27.67,25.42,70.84,25.31,98.38-0.26
			c18.42-17.1,25.87-41.39,22.35-64.3c-3.2-20.81,4.18-41.86,19.07-56.75l1.96-1.96c14.71-14.71,35.52-21.98,56.06-18.74
			c22.17,3.5,45.65-3.27,62.7-20.31C709.2,198.02,708.36,150.13,677.57,122.1z"/>
		<path class="st6" d="M676.94,121.4c-27.76-25.27-70.87-24.97-98.3,0.65c-18.46,17.24-25.82,41.73-22.09,64.75
			c3.38,20.85-3.94,42.01-18.87,56.94l-1.5,1.5c-15,15-36.28,21.49-57.25,18.32c-7.62-1.15-15.4-1.1-23.01,0.18
			c-20.83,3.48-42.08-2.83-57.02-17.76l-2.23-2.23c-14.94-14.94-22.26-36.1-18.88-56.95c3.85-23.76-4.11-49.08-23.9-66.39
			c-27.02-23.64-67.89-23.76-95.05-0.28c-19.71,17.04-27.84,41.97-24.4,65.53c2.95,20.23-3.37,40.7-17.82,55.15l-4.88,4.88
			c-14.45,14.45-34.92,20.77-55.15,17.82c-22.83-3.33-46.95,4.19-63.93,22.6c-25.33,27.46-25.48,70.33-0.33,97.96
			c28.03,30.79,75.92,31.63,105.03,2.52c17.31-17.31,24.03-41.25,20.16-63.71c-3.57-20.75,3.67-41.89,18.56-56.78l0.51-0.51
			c15.09-15.09,36.5-22.45,57.55-18.93c7.5,1.25,15.15,1.32,22.67,0.22c20.68-3.04,41.61,3.4,56.39,18.18l5.02,5.02
			c14.43,14.43,20.79,34.83,17.95,55.04c-3.2,22.77,4.38,46.77,22.76,63.65c27.67,25.42,70.84,25.31,98.38-0.26
			c18.42-17.1,25.87-41.39,22.35-64.3c-3.2-20.81,4.18-41.86,19.07-56.75l1.96-1.96c14.71-14.71,35.52-21.98,56.06-18.74
			c22.17,3.5,45.65-3.27,62.7-20.31C708.57,197.32,707.73,149.43,676.94,121.4z"/>
		<path class="st7" d="M676.31,120.7c-27.76-25.27-70.87-24.97-98.3,0.65c-18.46,17.24-25.82,41.73-22.09,64.75
			c3.38,20.85-3.94,42.01-18.87,56.94l-1.5,1.5c-15,15-36.28,21.49-57.25,18.32c-7.62-1.15-15.4-1.1-23.01,0.18
			c-20.83,3.48-42.08-2.83-57.02-17.76l-2.23-2.23c-14.94-14.94-22.26-36.1-18.88-56.95c3.85-23.76-4.11-49.08-23.9-66.39
			c-27.02-23.64-67.89-23.76-95.05-0.28c-19.71,17.04-27.84,41.97-24.4,65.53c2.95,20.23-3.37,40.7-17.82,55.15l-4.88,4.88
			c-14.45,14.45-34.92,20.77-55.15,17.82c-22.83-3.33-46.95,4.19-63.93,22.6c-25.33,27.46-25.48,70.33-0.33,97.96
			c28.03,30.79,75.92,31.63,105.03,2.52c17.31-17.31,24.03-41.25,20.16-63.71c-3.57-20.75,3.67-41.89,18.56-56.78l0.51-0.51
			c15.09-15.09,36.5-22.45,57.55-18.93c7.5,1.25,15.15,1.32,22.67,0.22c20.68-3.04,41.61,3.4,56.39,18.18l5.02,5.02
			c14.43,14.43,20.79,34.83,17.95,55.04c-3.2,22.77,4.38,46.77,22.76,63.65c27.67,25.42,70.84,25.31,98.38-0.26
			c18.42-17.1,25.87-41.39,22.35-64.3c-3.2-20.81,4.18-41.86,19.07-56.75l1.96-1.96c14.71-14.71,35.52-21.98,56.06-18.74
			c22.17,3.5,45.65-3.27,62.7-20.31C707.94,196.63,707.1,148.73,676.31,120.7z"/>
		<path class="st8" d="M675.69,120.01c-27.76-25.27-70.87-24.97-98.3,0.65c-18.46,17.24-25.82,41.73-22.09,64.75
			c3.38,20.85-3.94,42.01-18.87,56.94l-1.5,1.5c-15,15-36.28,21.49-57.25,18.32c-7.62-1.15-15.4-1.1-23.01,0.18
			c-20.83,3.48-42.08-2.83-57.02-17.76l-2.23-2.23c-14.94-14.94-22.26-36.1-18.88-56.95c3.85-23.76-4.11-49.08-23.9-66.39
			c-27.02-23.64-67.89-23.76-95.05-0.28c-19.71,17.04-27.84,41.97-24.4,65.53c2.95,20.23-3.37,40.7-17.82,55.15l-4.88,4.88
			c-14.45,14.45-34.92,20.77-55.15,17.82c-22.83-3.33-46.95,4.19-63.93,22.6c-25.33,27.46-25.48,70.33-0.33,97.96
			c28.03,30.79,75.92,31.63,105.03,2.52c17.31-17.31,24.03-41.25,20.16-63.71c-3.57-20.75,3.67-41.89,18.56-56.78l0.51-0.51
			c15.09-15.09,36.5-22.45,57.55-18.93c7.5,1.25,15.15,1.32,22.67,0.22c20.68-3.04,41.61,3.4,56.39,18.18l5.02,5.02
			c14.43,14.43,20.79,34.83,17.95,55.04c-3.2,22.77,4.38,46.77,22.76,63.65c27.67,25.42,70.84,25.31,98.38-0.26
			c18.42-17.1,25.87-41.39,22.35-64.3c-3.2-20.81,4.18-41.86,19.07-56.75l1.96-1.96c14.71-14.71,35.52-21.98,56.06-18.74
			c22.17,3.5,45.65-3.27,62.7-20.31C707.32,195.93,706.48,148.03,675.69,120.01z"/>
		<path class="st9" d="M675.06,119.31c-27.76-25.27-70.87-24.97-98.3,0.65c-18.46,17.24-25.82,41.73-22.09,64.75
			c3.38,20.85-3.94,42.01-18.87,56.94l-1.5,1.5c-15,15-36.28,21.49-57.25,18.32c-7.62-1.15-15.4-1.1-23.01,0.18
			c-20.83,3.48-42.08-2.83-57.02-17.76l-2.23-2.23c-14.94-14.94-22.26-36.1-18.88-56.95c3.85-23.76-4.11-49.08-23.9-66.39
			c-27.02-23.63-67.89-23.76-95.05-0.28c-19.71,17.04-27.84,41.97-24.4,65.53c2.95,20.23-3.37,40.7-17.82,55.15l-4.88,4.88
			c-14.45,14.45-34.92,20.77-55.15,17.82c-22.83-3.33-46.95,4.19-63.93,22.6c-25.33,27.46-25.48,70.33-0.33,97.96
			c28.03,30.79,75.92,31.63,105.03,2.52c17.31-17.31,24.03-41.25,20.16-63.71c-3.57-20.75,3.67-41.89,18.56-56.78l0.51-0.51
			c15.09-15.09,36.5-22.45,57.55-18.93c7.5,1.25,15.15,1.32,22.67,0.22c20.68-3.04,41.61,3.4,56.39,18.18l5.02,5.02
			c14.43,14.43,20.79,34.83,17.95,55.04c-3.2,22.77,4.38,46.77,22.76,63.65c27.67,25.42,70.84,25.31,98.38-0.26
			c18.42-17.1,25.87-41.39,22.35-64.3c-3.2-20.81,4.18-41.86,19.07-56.75l1.96-1.96c14.71-14.71,35.52-21.98,56.06-18.74
			c22.17,3.5,45.65-3.27,62.7-20.31C706.69,195.23,705.85,147.34,675.06,119.31z"/>
		<path class="st10" d="M674.43,118.61c-27.76-25.27-70.87-24.97-98.3,0.65c-18.46,17.24-25.82,41.73-22.09,64.75
			c3.38,20.85-3.94,42.01-18.87,56.94l-1.5,1.5c-15,15-36.28,21.49-57.25,18.32c-7.62-1.15-15.4-1.1-23.01,0.18
			c-20.83,3.48-42.08-2.83-57.02-17.76l-2.23-2.23c-14.94-14.94-22.26-36.1-18.88-56.95c3.85-23.76-4.11-49.08-23.9-66.39
			c-27.02-23.63-67.89-23.76-95.05-0.28c-19.71,17.04-27.84,41.97-24.4,65.53c2.95,20.23-3.37,40.7-17.82,55.15l-4.88,4.88
			c-14.45,14.45-34.92,20.77-55.15,17.82c-22.83-3.33-46.95,4.19-63.93,22.6c-25.33,27.46-25.48,70.33-0.33,97.96
			c28.03,30.79,75.92,31.63,105.03,2.52c17.31-17.31,24.03-41.25,20.16-63.71c-3.57-20.75,3.67-41.89,18.56-56.78l0.51-0.51
			c15.09-15.09,36.5-22.45,57.55-18.93c7.5,1.25,15.15,1.32,22.67,0.22c20.68-3.04,41.61,3.4,56.39,18.18l5.02,5.02
			c14.43,14.43,20.79,34.83,17.95,55.04c-3.2,22.77,4.38,46.77,22.76,63.65c27.67,25.42,70.84,25.31,98.38-0.26
			c18.42-17.1,25.87-41.39,22.35-64.3c-3.2-20.81,4.18-41.86,19.07-56.75l1.96-1.96c14.71-14.71,35.52-21.98,56.06-18.74
			c22.17,3.5,45.65-3.27,62.7-20.31C706.06,194.53,705.22,146.64,674.43,118.61z"/>
		<path class="st11" d="M673.8,117.91c-27.76-25.27-70.87-24.97-98.3,0.65c-18.46,17.24-25.82,41.73-22.09,64.75
			c3.38,20.85-3.94,42.01-18.87,56.94l-1.5,1.5c-15,15-36.28,21.49-57.25,18.32c-7.62-1.15-15.4-1.1-23.01,0.18
			c-20.83,3.48-42.08-2.83-57.02-17.76l-2.23-2.23c-14.94-14.94-22.26-36.1-18.88-56.95c3.85-23.76-4.11-49.08-23.9-66.39
			c-27.02-23.64-67.89-23.76-95.05-0.28c-19.71,17.04-27.84,41.97-24.4,65.53c2.95,20.23-3.37,40.7-17.82,55.15l-4.88,4.88
			c-14.45,14.45-34.92,20.77-55.15,17.82c-22.83-3.33-46.95,4.19-63.93,22.6c-25.33,27.46-25.48,70.33-0.33,97.96
			c28.03,30.79,75.92,31.63,105.03,2.52c17.31-17.31,24.03-41.25,20.16-63.71c-3.57-20.75,3.67-41.89,18.56-56.78l0.51-0.51
			c15.09-15.09,36.5-22.45,57.55-18.93c7.5,1.25,15.15,1.32,22.67,0.22c20.68-3.04,41.61,3.4,56.39,18.18l5.02,5.02
			c14.43,14.43,20.79,34.83,17.95,55.04c-3.2,22.77,4.38,46.77,22.76,63.65c27.67,25.42,70.84,25.31,98.38-0.26
			c18.42-17.1,25.87-41.39,22.35-64.3c-3.2-20.81,4.18-41.86,19.07-56.75l1.96-1.96c14.71-14.71,35.52-21.98,56.06-18.74
			c22.17,3.5,45.65-3.27,62.7-20.31C705.43,193.83,704.59,145.94,673.8,117.91z"/>
		<path class="st12" d="M673.17,117.21c-27.76-25.27-70.87-24.97-98.3,0.65c-18.46,17.24-25.82,41.73-22.09,64.75
			c3.38,20.85-3.94,42.01-18.87,56.94l-1.5,1.5c-15,15-36.28,21.49-57.25,18.32c-7.62-1.15-15.4-1.1-23.01,0.18
			c-20.83,3.48-42.08-2.83-57.02-17.76l-2.23-2.23c-14.94-14.94-22.26-36.1-18.88-56.95c3.85-23.76-4.11-49.08-23.9-66.39
			c-27.02-23.64-67.89-23.76-95.05-0.28c-19.71,17.04-27.84,41.97-24.4,65.53c2.95,20.23-3.37,40.7-17.82,55.15l-4.88,4.88
			c-14.45,14.45-34.92,20.77-55.15,17.82c-22.83-3.33-46.95,4.19-63.93,22.6c-25.33,27.46-25.48,70.33-0.33,97.96
			c28.03,30.79,75.92,31.63,105.03,2.52c17.31-17.31,24.03-41.25,20.16-63.71c-3.57-20.75,3.67-41.89,18.56-56.78l0.51-0.51
			c15.09-15.09,36.5-22.45,57.55-18.93c7.5,1.25,15.15,1.32,22.67,0.22c20.68-3.04,41.61,3.4,56.39,18.18l5.02,5.02
			c14.43,14.43,20.79,34.83,17.95,55.04c-3.2,22.77,4.38,46.77,22.76,63.65c27.67,25.42,70.84,25.31,98.38-0.26
			c18.42-17.1,25.87-41.39,22.35-64.3c-3.2-20.81,4.18-41.86,19.07-56.75l1.96-1.96c14.71-14.71,35.52-21.98,56.06-18.74
			c22.17,3.5,45.65-3.27,62.7-20.31C704.8,193.13,703.96,145.24,673.17,117.21z"/>
		<path class="st13" d="M672.54,116.51c-27.76-25.27-70.87-24.97-98.3,0.65c-18.46,17.24-25.82,41.73-22.09,64.75
			c3.38,20.85-3.94,42.01-18.87,56.94l-1.5,1.5c-15,15-36.28,21.49-57.25,18.32c-7.62-1.15-15.4-1.1-23.01,0.18
			c-20.83,3.48-42.08-2.83-57.02-17.76l-2.23-2.23c-14.94-14.94-22.26-36.1-18.88-56.95c3.85-23.76-4.11-49.08-23.9-66.39
			c-27.02-23.64-67.89-23.76-95.05-0.28c-19.71,17.04-27.84,41.97-24.4,65.53c2.95,20.23-3.37,40.7-17.82,55.15l-4.88,4.88
			c-14.45,14.45-34.92,20.77-55.15,17.82c-22.83-3.33-46.95,4.19-63.93,22.6c-25.33,27.46-25.48,70.33-0.33,97.96
			c28.03,30.79,75.92,31.63,105.03,2.52c17.31-17.31,24.03-41.25,20.16-63.71c-3.57-20.75,3.67-41.89,18.56-56.78l0.51-0.51
			c15.09-15.09,36.5-22.45,57.55-18.93c7.5,1.25,15.15,1.32,22.67,0.22c20.68-3.04,41.61,3.4,56.39,18.18l5.02,5.02
			c14.43,14.43,20.79,34.83,17.95,55.04c-3.2,22.77,4.38,46.77,22.76,63.65c27.67,25.42,70.84,25.31,98.38-0.26
			c18.42-17.1,25.87-41.39,22.35-64.3c-3.2-20.81,4.18-41.86,19.07-56.75l1.96-1.96c14.71-14.71,35.52-21.98,56.06-18.74
			c22.17,3.5,45.65-3.27,62.7-20.31C704.17,192.43,703.33,144.54,672.54,116.51z"/>
		<path class="st14" d="M671.91,115.81c-27.76-25.27-70.87-24.97-98.3,0.65c-18.46,17.24-25.82,41.73-22.08,64.75
			c3.38,20.85-3.94,42.01-18.87,56.94l-1.5,1.5c-15,15-36.28,21.49-57.25,18.32c-7.62-1.15-15.4-1.1-23.01,0.18
			c-20.83,3.48-42.08-2.83-57.02-17.76l-2.23-2.23c-14.94-14.94-22.26-36.1-18.88-56.95c3.85-23.76-4.11-49.08-23.9-66.39
			c-27.02-23.64-67.89-23.76-95.05-0.28c-19.71,17.04-27.84,41.97-24.4,65.53c2.95,20.23-3.37,40.7-17.82,55.15l-4.88,4.88
			c-14.45,14.45-34.92,20.77-55.15,17.82c-22.83-3.33-46.95,4.19-63.93,22.6c-25.33,27.46-25.48,70.33-0.33,97.96
			c28.03,30.79,75.92,31.63,105.03,2.52c17.31-17.31,24.03-41.25,20.16-63.71c-3.57-20.75,3.67-41.89,18.56-56.78l0.51-0.51
			c15.09-15.09,36.5-22.45,57.55-18.93c7.5,1.25,15.15,1.32,22.67,0.22c20.68-3.04,41.61,3.4,56.39,18.18l5.02,5.02
			c14.43,14.43,20.79,34.83,17.95,55.04c-3.2,22.77,4.38,46.77,22.76,63.65c27.67,25.42,70.84,25.31,98.38-0.26
			c18.42-17.1,25.87-41.39,22.35-64.3c-3.2-20.81,4.18-41.86,19.07-56.75l1.96-1.96c14.71-14.71,35.52-21.98,56.06-18.74
			c22.17,3.5,45.65-3.27,62.7-20.31C703.54,191.74,702.7,143.84,671.91,115.81z"/>
		<path class="st15" d="M671.29,115.12c-27.76-25.27-70.87-24.97-98.3,0.65c-18.46,17.24-25.82,41.73-22.09,64.75
			c3.38,20.85-3.94,42.01-18.87,56.94l-1.5,1.5c-15,15-36.28,21.49-57.25,18.32c-7.62-1.15-15.4-1.1-23.01,0.18
			c-20.83,3.48-42.08-2.83-57.02-17.76l-2.23-2.23c-14.94-14.94-22.26-36.1-18.88-56.95c3.85-23.76-4.11-49.08-23.9-66.39
			c-27.02-23.64-67.89-23.76-95.05-0.28c-19.71,17.04-27.84,41.97-24.4,65.53c2.95,20.23-3.37,40.7-17.82,55.15l-4.88,4.88
			c-14.45,14.45-34.92,20.77-55.15,17.82c-22.83-3.33-46.95,4.19-63.93,22.6c-25.33,27.46-25.48,70.33-0.33,97.96
			c28.03,30.79,75.92,31.63,105.03,2.52c17.31-17.31,24.03-41.25,20.16-63.71c-3.57-20.75,3.67-41.89,18.56-56.78l0.51-0.51
			c15.09-15.09,36.5-22.45,57.55-18.93c7.5,1.25,15.15,1.32,22.67,0.22c20.68-3.04,41.61,3.4,56.39,18.18l5.02,5.02
			c14.43,14.43,20.79,34.83,17.95,55.04c-3.2,22.77,4.38,46.77,22.76,63.65c27.67,25.42,70.84,25.31,98.38-0.26
			c18.42-17.1,25.87-41.39,22.35-64.3c-3.2-20.81,4.18-41.86,19.07-56.75l1.96-1.96c14.71-14.71,35.52-21.98,56.06-18.74
			c22.17,3.5,45.65-3.27,62.7-20.31C702.91,191.04,702.08,143.14,671.29,115.12z"/>
		<path class="st16" d="M670.66,114.42c-27.76-25.27-70.87-24.97-98.3,0.65c-18.46,17.24-25.82,41.73-22.09,64.75
			c3.38,20.85-3.94,42.01-18.87,56.94l-1.5,1.5c-15,15-36.28,21.49-57.25,18.32c-7.62-1.15-15.4-1.1-23.01,0.18
			c-20.83,3.48-42.08-2.83-57.02-17.76l-2.23-2.23c-14.94-14.94-22.26-36.1-18.88-56.95c3.85-23.76-4.11-49.08-23.9-66.39
			c-27.02-23.63-67.89-23.76-95.05-0.28c-19.71,17.04-27.84,41.97-24.4,65.53c2.95,20.23-3.37,40.7-17.82,55.15l-4.88,4.88
			c-14.45,14.45-34.92,20.77-55.15,17.82c-22.83-3.33-46.95,4.2-63.93,22.6c-25.33,27.46-25.48,70.33-0.33,97.96
			c28.03,30.79,75.92,31.63,105.03,2.52c17.31-17.31,24.03-41.25,20.16-63.71c-3.57-20.75,3.67-41.89,18.56-56.78l0.51-0.51
			c15.09-15.09,36.5-22.45,57.55-18.93c7.5,1.25,15.15,1.32,22.67,0.22c20.68-3.04,41.61,3.4,56.39,18.18l5.02,5.02
			c14.43,14.43,20.79,34.83,17.95,55.04c-3.2,22.77,4.38,46.77,22.76,63.65c27.67,25.42,70.84,25.31,98.38-0.26
			c18.42-17.1,25.87-41.39,22.35-64.3c-3.2-20.81,4.18-41.86,19.07-56.75l1.96-1.96c14.71-14.71,35.52-21.98,56.06-18.74
			c22.17,3.5,45.65-3.27,62.7-20.31C702.29,190.34,701.45,142.45,670.66,114.42z"/>
		<path class="st17" d="M670.03,113.72c-27.76-25.27-70.87-24.97-98.3,0.65c-18.46,17.24-25.82,41.73-22.09,64.75
			c3.38,20.85-3.94,42.01-18.87,56.94l-1.5,1.5c-15,15-36.28,21.49-57.25,18.32c-7.62-1.15-15.4-1.1-23.01,0.18
			c-20.83,3.48-42.08-2.83-57.02-17.76l-2.23-2.23c-14.94-14.94-22.26-36.1-18.88-56.95c3.85-23.76-4.11-49.08-23.9-66.39
			c-27.02-23.63-67.89-23.76-95.05-0.28c-19.71,17.04-27.84,41.97-24.4,65.53c2.95,20.23-3.37,40.7-17.82,55.15l-4.88,4.88
			c-14.45,14.45-34.92,20.77-55.15,17.82c-22.83-3.33-46.95,4.19-63.93,22.6c-25.33,27.46-25.48,70.33-0.33,97.96
			c28.03,30.79,75.92,31.63,105.03,2.52c17.31-17.31,24.03-41.25,20.16-63.71c-3.57-20.75,3.67-41.89,18.56-56.78l0.51-0.51
			c15.09-15.09,36.5-22.45,57.55-18.93c7.5,1.25,15.15,1.32,22.67,0.22c20.68-3.04,41.61,3.4,56.39,18.18l5.02,5.02
			c14.43,14.43,20.79,34.83,17.95,55.04c-3.2,22.77,4.38,46.77,22.76,63.65c27.67,25.42,70.84,25.31,98.38-0.26
			c18.42-17.1,25.87-41.39,22.35-64.3c-3.2-20.81,4.18-41.86,19.07-56.75l1.96-1.96c14.71-14.71,35.52-21.98,56.06-18.74
			c22.17,3.5,45.65-3.27,62.7-20.31C701.66,189.64,700.82,141.75,670.03,113.72z"/>
		<path class="st18" d="M669.4,113.02c-27.76-25.27-70.87-24.97-98.3,0.65c-18.46,17.24-25.82,41.73-22.08,64.75
			c3.38,20.85-3.94,42.01-18.87,56.94l-1.5,1.5c-15,15-36.28,21.49-57.25,18.32c-7.62-1.15-15.4-1.1-23.01,0.18
			c-20.83,3.48-42.08-2.83-57.02-17.76l-2.23-2.23c-14.94-14.94-22.26-36.1-18.88-56.95c3.85-23.76-4.11-49.08-23.9-66.39
			c-27.02-23.64-67.89-23.76-95.05-0.28c-19.71,17.04-27.84,41.97-24.4,65.53c2.95,20.23-3.37,40.7-17.82,55.15l-4.88,4.88
			c-14.45,14.45-34.92,20.77-55.15,17.82c-22.83-3.33-46.95,4.19-63.93,22.6c-25.33,27.46-25.48,70.33-0.33,97.96
			c28.03,30.79,75.92,31.63,105.03,2.52c17.31-17.31,24.03-41.25,20.16-63.71c-3.57-20.75,3.67-41.89,18.56-56.78l0.51-0.51
			c15.09-15.09,36.5-22.45,57.55-18.93c7.5,1.25,15.15,1.32,22.67,0.22c20.68-3.04,41.61,3.4,56.39,18.18l5.02,5.02
			c14.43,14.43,20.79,34.83,17.95,55.04c-3.2,22.77,4.38,46.77,22.76,63.65c27.67,25.42,70.84,25.31,98.38-0.26
			c18.42-17.1,25.87-41.39,22.35-64.3c-3.2-20.81,4.18-41.86,19.07-56.75l1.96-1.96c14.71-14.71,35.52-21.98,56.06-18.74
			c22.17,3.5,45.65-3.27,62.7-20.31C701.03,188.94,700.19,141.05,669.4,113.02z"/>
		<path class="st19" d="M668.77,112.32c-27.76-25.27-70.87-24.97-98.3,0.65c-18.46,17.24-25.82,41.73-22.08,64.75
			c3.38,20.85-3.94,42.01-18.88,56.94l-1.5,1.5c-15,15-36.28,21.49-57.25,18.32c-7.62-1.15-15.4-1.1-23.01,0.18
			c-20.83,3.48-42.08-2.83-57.02-17.76l-2.23-2.23c-14.94-14.94-22.26-36.1-18.88-56.95c3.85-23.76-4.11-49.08-23.9-66.39
			c-27.02-23.64-67.89-23.76-95.05-0.28c-19.71,17.04-27.84,41.97-24.4,65.53c2.95,20.23-3.37,40.7-17.82,55.15l-4.88,4.88
			c-14.45,14.45-34.92,20.77-55.15,17.82c-22.83-3.33-46.95,4.2-63.93,22.6c-25.33,27.46-25.48,70.33-0.33,97.96
			c28.03,30.79,75.92,31.63,105.03,2.52c17.31-17.31,24.03-41.25,20.16-63.71c-3.57-20.75,3.67-41.89,18.56-56.78l0.51-0.51
			c15.09-15.09,36.5-22.45,57.55-18.93c7.5,1.25,15.15,1.32,22.67,0.22c20.68-3.04,41.61,3.4,56.39,18.18l5.02,5.02
			c14.43,14.43,20.79,34.83,17.95,55.04c-3.2,22.77,4.38,46.77,22.76,63.65c27.67,25.42,70.84,25.31,98.38-0.26
			c18.42-17.1,25.87-41.39,22.35-64.3c-3.2-20.81,4.18-41.86,19.07-56.75l1.96-1.96c14.71-14.71,35.52-21.98,56.06-18.74
			c22.17,3.5,45.65-3.27,62.7-20.31C700.4,188.24,699.56,140.35,668.77,112.32z"/>
		<path class="st20" d="M668.14,111.62c-27.76-25.27-70.87-24.97-98.3,0.65c-18.46,17.24-25.82,41.73-22.09,64.75
			c3.38,20.85-3.94,42.01-18.87,56.94l-1.5,1.5c-15,15-36.28,21.49-57.25,18.32c-7.62-1.15-15.4-1.1-23.01,0.18
			c-20.83,3.48-42.08-2.83-57.02-17.76l-2.23-2.23c-14.94-14.94-22.26-36.1-18.88-56.95c3.85-23.76-4.11-49.08-23.9-66.39
			c-27.02-23.64-67.89-23.76-95.05-0.28c-19.71,17.04-27.84,41.97-24.4,65.53c2.95,20.23-3.37,40.7-17.82,55.15l-4.88,4.88
			c-14.45,14.45-34.92,20.77-55.15,17.82c-22.83-3.33-46.95,4.19-63.93,22.6c-25.33,27.46-25.48,70.33-0.33,97.96
			c28.03,30.79,75.92,31.63,105.03,2.52c17.31-17.31,24.03-41.25,20.16-63.71c-3.57-20.75,3.67-41.89,18.56-56.78l0.51-0.51
			c15.09-15.09,36.5-22.45,57.55-18.93c7.5,1.25,15.15,1.32,22.67,0.22c20.68-3.04,41.61,3.4,56.39,18.18l5.02,5.02
			c14.43,14.43,20.79,34.83,17.95,55.04c-3.2,22.77,4.38,46.77,22.76,63.65c27.67,25.42,70.84,25.31,98.38-0.26
			c18.42-17.1,25.87-41.39,22.35-64.3c-3.2-20.81,4.18-41.86,19.07-56.75l1.96-1.96c14.71-14.71,35.52-21.98,56.06-18.74
			c22.17,3.5,45.65-3.27,62.7-20.31C699.77,187.55,698.93,139.65,668.14,111.62z"/>
		<path class="st21" d="M667.51,110.92c-27.76-25.27-70.87-24.97-98.3,0.65c-18.46,17.24-25.82,41.73-22.09,64.75
			c3.38,20.85-3.94,42.01-18.87,56.94l-1.5,1.5c-15,15-36.28,21.49-57.25,18.32c-7.62-1.15-15.4-1.1-23.01,0.18
			c-20.83,3.48-42.08-2.83-57.02-17.76l-2.23-2.23c-14.94-14.94-22.26-36.1-18.88-56.95c3.85-23.76-4.11-49.08-23.9-66.39
			c-27.02-23.64-67.89-23.76-95.05-0.28c-19.71,17.04-27.84,41.97-24.4,65.53c2.95,20.23-3.37,40.7-17.82,55.15l-4.88,4.88
			c-14.45,14.45-34.92,20.77-55.15,17.82c-22.83-3.33-46.95,4.19-63.93,22.6c-25.33,27.46-25.48,70.33-0.33,97.96
			c28.03,30.79,75.92,31.63,105.03,2.52c17.31-17.31,24.03-41.25,20.16-63.71c-3.57-20.75,3.67-41.89,18.56-56.78l0.51-0.51
			c15.09-15.09,36.5-22.45,57.55-18.93c7.5,1.25,15.15,1.32,22.67,0.22c20.68-3.04,41.61,3.4,56.39,18.18l5.02,5.02
			c14.43,14.43,20.79,34.83,17.95,55.04c-3.2,22.77,4.38,46.77,22.76,63.65c27.67,25.42,70.84,25.31,98.38-0.26
			c18.42-17.1,25.87-41.39,22.35-64.3c-3.2-20.81,4.18-41.86,19.07-56.75l1.96-1.96c14.71-14.71,35.52-21.98,56.06-18.74
			c22.17,3.5,45.65-3.27,62.7-20.31C699.14,186.85,698.3,138.95,667.51,110.92z"/>
		<path class="st22" d="M666.89,110.23c-27.76-25.27-70.87-24.97-98.3,0.65c-18.46,17.24-25.82,41.73-22.09,64.75
			c3.38,20.85-3.94,42.01-18.87,56.94l-1.5,1.5c-15,15-36.28,21.49-57.25,18.32c-7.62-1.15-15.4-1.1-23.01,0.18
			c-20.83,3.48-42.08-2.83-57.02-17.76l-2.23-2.23c-14.94-14.94-22.26-36.1-18.88-56.95c3.85-23.76-4.11-49.08-23.9-66.39
			c-27.02-23.64-67.89-23.76-95.05-0.28c-19.71,17.04-27.84,41.97-24.4,65.53c2.95,20.23-3.37,40.7-17.82,55.15l-4.88,4.88
			c-14.45,14.45-34.92,20.77-55.15,17.82c-22.83-3.33-46.95,4.2-63.93,22.6c-25.33,27.46-25.48,70.33-0.33,97.96
			c28.03,30.79,75.92,31.63,105.03,2.52c17.31-17.31,24.03-41.25,20.16-63.71c-3.57-20.75,3.67-41.89,18.56-56.78l0.51-0.51
			c15.09-15.09,36.5-22.45,57.55-18.93c7.5,1.25,15.15,1.32,22.67,0.22c20.68-3.04,41.61,3.4,56.39,18.18l5.02,5.02
			c14.43,14.43,20.79,34.83,17.95,55.04c-3.2,22.77,4.38,46.77,22.76,63.65c27.67,25.42,70.84,25.31,98.38-0.26
			c18.42-17.1,25.87-41.39,22.35-64.3c-3.2-20.81,4.18-41.86,19.07-56.75l1.96-1.96c14.71-14.71,35.52-21.98,56.06-18.74
			c22.17,3.5,45.65-3.27,62.7-20.31C698.51,186.15,697.67,138.25,666.89,110.23z"/>
		<path class="st23" d="M666.26,109.53c-27.76-25.27-70.87-24.97-98.3,0.65c-18.46,17.24-25.82,41.73-22.09,64.75
			c3.38,20.85-3.94,42.01-18.87,56.94l-1.5,1.5c-15,15-36.28,21.49-57.25,18.32c-7.62-1.15-15.4-1.1-23.01,0.18
			c-20.83,3.48-42.08-2.83-57.02-17.76l-2.23-2.23c-14.94-14.94-22.26-36.1-18.88-56.95c3.85-23.76-4.11-49.08-23.9-66.39
			c-27.02-23.64-67.89-23.76-95.05-0.28c-19.71,17.04-27.84,41.97-24.4,65.53c2.95,20.23-3.37,40.7-17.82,55.15l-4.88,4.88
			c-14.45,14.45-34.92,20.77-55.15,17.82c-22.83-3.33-46.95,4.19-63.93,22.6c-25.33,27.46-25.48,70.33-0.33,97.96
			c28.03,30.79,75.92,31.63,105.03,2.52c17.31-17.31,24.03-41.25,20.16-63.71c-3.57-20.75,3.67-41.89,18.56-56.78l0.51-0.51
			c15.09-15.09,36.5-22.45,57.55-18.93c7.5,1.25,15.15,1.32,22.67,0.22c20.68-3.04,41.61,3.4,56.39,18.18l5.02,5.02
			c14.43,14.43,20.79,34.83,17.95,55.04c-3.2,22.77,4.38,46.77,22.76,63.65c27.67,25.42,70.84,25.31,98.38-0.26
			c18.42-17.1,25.87-41.39,22.35-64.3c-3.2-20.81,4.18-41.86,19.07-56.75l1.96-1.96c14.71-14.71,35.52-21.98,56.06-18.74
			c22.17,3.5,45.65-3.27,62.7-20.31C697.89,185.45,697.05,137.56,666.26,109.53z"/>
		<path class="st24" d="M665.63,108.83c-27.76-25.27-70.87-24.97-98.3,0.65c-18.46,17.24-25.82,41.73-22.09,64.75
			c3.38,20.85-3.94,42.01-18.87,56.94l-1.5,1.5c-15,15-36.28,21.49-57.25,18.32c-7.62-1.15-15.4-1.1-23.01,0.18
			c-20.83,3.48-42.08-2.83-57.02-17.76l-2.23-2.23c-14.94-14.94-22.26-36.1-18.88-56.95c3.85-23.76-4.11-49.08-23.9-66.39
			c-27.02-23.63-67.89-23.76-95.05-0.28c-19.71,17.04-27.84,41.97-24.4,65.53c2.95,20.23-3.37,40.7-17.82,55.15l-4.88,4.88
			c-14.45,14.45-34.92,20.77-55.15,17.82c-22.83-3.33-46.95,4.19-63.93,22.6c-25.33,27.46-25.48,70.33-0.33,97.96
			c28.03,30.79,75.92,31.63,105.03,2.52c17.31-17.31,24.03-41.25,20.16-63.71c-3.57-20.75,3.67-41.89,18.56-56.78l0.51-0.51
			c15.09-15.09,36.5-22.45,57.55-18.93c7.5,1.25,15.15,1.32,22.67,0.22c20.68-3.04,41.61,3.4,56.39,18.18l5.02,5.02
			c14.43,14.43,20.79,34.83,17.95,55.04c-3.2,22.77,4.38,46.77,22.76,63.65c27.67,25.42,70.84,25.31,98.38-0.26
			c18.42-17.1,25.87-41.39,22.35-64.3c-3.2-20.81,4.18-41.86,19.07-56.75l1.96-1.96c14.71-14.71,35.52-21.98,56.06-18.74
			c22.17,3.5,45.65-3.27,62.7-20.31C697.26,184.75,696.42,136.86,665.63,108.83z"/>
		<path class="st25" d="M665,108.13c-27.76-25.27-70.87-24.97-98.3,0.65c-18.46,17.24-25.82,41.73-22.08,64.75
			c3.38,20.85-3.94,42.01-18.87,56.94l-1.5,1.5c-15,15-36.28,21.49-57.25,18.32c-7.62-1.15-15.4-1.1-23.01,0.18
			c-20.83,3.48-42.08-2.83-57.02-17.76l-2.23-2.23c-14.94-14.94-22.26-36.1-18.88-56.95c3.85-23.76-4.11-49.08-23.9-66.39
			c-27.02-23.64-67.89-23.76-95.05-0.28c-19.71,17.04-27.84,41.97-24.4,65.53c2.95,20.23-3.37,40.7-17.82,55.15l-4.88,4.88
			c-14.45,14.45-34.92,20.77-55.15,17.82c-22.83-3.33-46.95,4.2-63.93,22.6C55.4,300.3,55.24,343.17,80.4,370.8
			c28.03,30.79,75.92,31.63,105.03,2.52c17.31-17.31,24.03-41.25,20.16-63.71c-3.57-20.75,3.67-41.89,18.56-56.78l0.51-0.51
			c15.09-15.09,36.5-22.45,57.55-18.93c7.5,1.25,15.15,1.32,22.67,0.22c20.68-3.04,41.61,3.4,56.39,18.18l5.02,5.02
			c14.43,14.43,20.79,34.83,17.95,55.04c-3.2,22.77,4.38,46.77,22.76,63.65c27.67,25.42,70.84,25.31,98.38-0.26
			c18.42-17.1,25.87-41.39,22.35-64.3c-3.2-20.81,4.18-41.86,19.07-56.75l1.96-1.96c14.71-14.71,35.52-21.98,56.06-18.74
			c22.17,3.5,45.65-3.27,62.7-20.31C696.63,184.05,695.79,136.16,665,108.13z"/>
		<path class="st26" d="M664.37,107.43c-27.76-25.27-70.87-24.97-98.3,0.65c-18.46,17.24-25.82,41.73-22.08,64.75
			c3.38,20.85-3.94,42.01-18.87,56.94l-1.5,1.5c-15,15-36.28,21.49-57.25,18.32c-7.62-1.15-15.4-1.1-23.01,0.18
			c-20.83,3.48-42.08-2.83-57.02-17.76l-2.23-2.23c-14.94-14.94-22.26-36.1-18.88-56.95c3.85-23.76-4.11-49.08-23.9-66.39
			c-27.02-23.64-67.89-23.76-95.05-0.28c-19.71,17.04-27.84,41.97-24.4,65.53c2.95,20.23-3.37,40.7-17.82,55.15l-4.88,4.88
			c-14.45,14.45-34.92,20.77-55.15,17.82c-22.83-3.33-46.95,4.2-63.93,22.6c-25.33,27.46-25.48,70.33-0.33,97.96
			c28.03,30.79,75.92,31.63,105.03,2.52c17.31-17.31,24.03-41.25,20.16-63.71c-3.57-20.75,3.67-41.89,18.56-56.78l0.51-0.51
			c15.09-15.09,36.5-22.45,57.55-18.93c7.5,1.25,15.15,1.32,22.67,0.22c20.68-3.04,41.61,3.4,56.39,18.18l5.02,5.02
			c14.43,14.43,20.79,34.83,17.95,55.04c-3.2,22.77,4.38,46.77,22.76,63.65c27.67,25.42,70.84,25.31,98.38-0.26
			c18.42-17.1,25.87-41.39,22.35-64.3c-3.2-20.81,4.18-41.86,19.07-56.75l1.96-1.96c14.71-14.71,35.52-21.98,56.06-18.74
			c22.17,3.5,45.65-3.27,62.7-20.31C696,183.35,695.16,135.46,664.37,107.43z"/>
		<path class="st27" d="M663.74,106.73c-27.76-25.27-70.87-24.97-98.3,0.65c-18.46,17.24-25.82,41.73-22.09,64.75
			c3.38,20.85-3.94,42.01-18.87,56.94l-1.5,1.5c-15,15-36.28,21.49-57.25,18.32c-7.62-1.15-15.4-1.1-23.01,0.18
			c-20.83,3.48-42.08-2.83-57.02-17.76l-2.23-2.23c-14.94-14.94-22.26-36.1-18.88-56.95c3.85-23.76-4.11-49.08-23.9-66.39
			c-27.02-23.64-67.89-23.76-95.05-0.28c-19.71,17.04-27.84,41.97-24.4,65.53c2.95,20.23-3.37,40.7-17.82,55.15l-4.88,4.88
			c-14.45,14.45-34.92,20.77-55.15,17.82c-22.83-3.33-46.95,4.19-63.93,22.6c-25.33,27.46-25.48,70.33-0.33,97.96
			c28.03,30.79,75.92,31.63,105.03,2.52c17.31-17.31,24.03-41.25,20.16-63.71c-3.57-20.75,3.67-41.89,18.56-56.78l0.51-0.51
			c15.09-15.09,36.5-22.45,57.55-18.93c7.5,1.25,15.15,1.32,22.67,0.22c20.68-3.04,41.61,3.4,56.39,18.18l5.02,5.02
			c14.43,14.43,20.79,34.83,17.95,55.04c-3.2,22.77,4.38,46.77,22.76,63.65c27.67,25.42,70.84,25.31,98.38-0.26
			c18.42-17.1,25.87-41.39,22.35-64.3c-3.2-20.81,4.18-41.86,19.07-56.75l1.96-1.96c14.71-14.71,35.52-21.98,56.06-18.74
			c22.17,3.5,45.65-3.27,62.7-20.31C695.37,182.66,694.53,134.76,663.74,106.73z"/>
		<path class="st28" d="M663.11,106.03c-27.76-25.27-70.87-24.97-98.3,0.65c-18.46,17.24-25.82,41.73-22.09,64.75
			c3.38,20.85-3.94,42.01-18.87,56.94l-1.5,1.5c-15,15-36.28,21.49-57.25,18.32c-7.62-1.15-15.4-1.1-23.01,0.18
			c-20.83,3.48-42.08-2.83-57.02-17.76l-2.23-2.23c-14.94-14.94-22.26-36.1-18.88-56.95c3.85-23.76-4.11-49.08-23.9-66.39
			c-27.02-23.64-67.89-23.76-95.05-0.28c-19.71,17.04-27.84,41.97-24.4,65.53c2.95,20.23-3.37,40.7-17.82,55.15l-4.88,4.88
			c-14.45,14.45-34.92,20.77-55.15,17.82c-22.83-3.33-46.95,4.19-63.93,22.6c-25.33,27.46-25.48,70.33-0.33,97.96
			c28.03,30.79,75.92,31.63,105.03,2.52c17.31-17.31,24.03-41.25,20.16-63.71c-3.57-20.75,3.67-41.89,18.56-56.78l0.51-0.51
			c15.09-15.09,36.5-22.45,57.55-18.93c7.5,1.25,15.15,1.32,22.67,0.22c20.68-3.04,41.61,3.4,56.39,18.18l5.02,5.02
			c14.43,14.43,20.79,34.83,17.95,55.04c-3.2,22.77,4.38,46.77,22.76,63.65c27.67,25.42,70.84,25.31,98.38-0.26
			c18.42-17.1,25.87-41.39,22.35-64.3c-3.2-20.81,4.18-41.86,19.07-56.75l1.96-1.96c14.71-14.71,35.52-21.98,56.06-18.74
			c22.17,3.5,45.65-3.27,62.7-20.31C694.74,181.96,693.9,134.06,663.11,106.03z"/>
		<path class="st29" d="M662.48,105.34c-27.76-25.27-70.87-24.97-98.3,0.65c-18.46,17.24-25.82,41.73-22.09,64.75
			c3.38,20.85-3.94,42.01-18.87,56.94l-1.5,1.5c-15,15-36.28,21.49-57.25,18.32c-7.62-1.15-15.4-1.1-23.01,0.18
			c-20.83,3.48-42.08-2.83-57.02-17.76l-2.23-2.23c-14.94-14.94-22.26-36.1-18.88-56.95c3.85-23.76-4.11-49.08-23.9-66.39
			c-27.02-23.64-67.89-23.76-95.05-0.28c-19.71,17.04-27.84,41.97-24.4,65.53c2.95,20.23-3.37,40.7-17.82,55.15l-4.88,4.88
			c-14.45,14.45-34.92,20.77-55.15,17.82c-22.83-3.33-46.95,4.2-63.93,22.6C52.88,297.5,52.73,340.37,77.88,368
			c28.03,30.79,75.92,31.63,105.03,2.52c17.31-17.31,24.03-41.25,20.16-63.71c-3.57-20.75,3.67-41.89,18.56-56.78l0.51-0.51
			c15.09-15.09,36.5-22.45,57.55-18.93c7.5,1.25,15.15,1.32,22.67,0.22c20.68-3.04,41.61,3.4,56.39,18.18l5.02,5.02
			c14.43,14.43,20.79,34.83,17.95,55.04c-3.2,22.77,4.38,46.77,22.76,63.65c27.67,25.42,70.84,25.31,98.38-0.26
			c18.42-17.1,25.87-41.39,22.35-64.3c-3.2-20.81,4.18-41.86,19.07-56.75l1.96-1.96c14.71-14.71,35.52-21.98,56.06-18.74
			c22.17,3.5,45.65-3.27,62.7-20.31C694.11,181.26,693.27,133.36,662.48,105.34z"/>
		<path class="st30" d="M661.86,104.64c-27.76-25.27-70.87-24.97-98.3,0.65c-18.46,17.24-25.82,41.73-22.08,64.75
			c3.38,20.85-3.94,42.01-18.87,56.94l-1.5,1.5c-15,15-36.28,21.49-57.25,18.32c-7.62-1.15-15.4-1.1-23.01,0.18
			c-20.83,3.48-42.08-2.83-57.02-17.76l-2.23-2.23c-14.94-14.94-22.26-36.1-18.88-56.95c3.85-23.76-4.11-49.08-23.9-66.39
			c-27.02-23.63-67.89-23.76-95.05-0.28c-19.71,17.04-27.84,41.97-24.4,65.53c2.95,20.23-3.37,40.7-17.82,55.15l-4.88,4.88
			c-14.45,14.45-34.92,20.77-55.15,17.82c-22.83-3.33-46.95,4.2-63.93,22.6c-25.33,27.46-25.48,70.33-0.33,97.96
			c28.03,30.79,75.92,31.63,105.03,2.52c17.31-17.31,24.03-41.25,20.16-63.71c-3.57-20.75,3.67-41.89,18.56-56.78l0.51-0.51
			c15.09-15.09,36.5-22.45,57.55-18.93c7.5,1.25,15.15,1.32,22.67,0.22c20.68-3.04,41.61,3.4,56.39,18.18l5.02,5.02
			c14.43,14.43,20.79,34.83,17.95,55.04c-3.2,22.77,4.38,46.77,22.76,63.65c27.67,25.42,70.84,25.31,98.38-0.26
			c18.42-17.1,25.87-41.39,22.35-64.3c-3.2-20.81,4.18-41.86,19.07-56.75l1.96-1.96c14.71-14.71,35.52-21.98,56.06-18.74
			c22.17,3.5,45.65-3.27,62.7-20.31C693.49,180.56,692.65,132.67,661.86,104.64z"/>
		<path class="st31" d="M661.23,103.94c-27.76-25.27-70.87-24.97-98.3,0.65c-18.46,17.24-25.82,41.73-22.08,64.75
			c3.38,20.85-3.94,42.01-18.87,56.94l-1.5,1.5c-15,15-36.28,21.49-57.25,18.32c-7.62-1.15-15.4-1.1-23.01,0.18
			c-20.83,3.48-42.08-2.83-57.02-17.76l-2.23-2.23c-14.94-14.94-22.26-36.1-18.88-56.95c3.85-23.76-4.11-49.08-23.9-66.39
			c-27.02-23.63-67.89-23.76-95.05-0.28c-19.71,17.04-27.84,41.97-24.4,65.53c2.95,20.23-3.37,40.7-17.82,55.15l-4.88,4.88
			c-14.45,14.45-34.92,20.77-55.15,17.82c-22.83-3.33-46.95,4.19-63.93,22.6c-25.33,27.46-25.48,70.33-0.33,97.96
			c28.03,30.79,75.92,31.63,105.03,2.52c17.31-17.31,24.03-41.25,20.16-63.71c-3.57-20.75,3.67-41.89,18.56-56.78l0.51-0.51
			c15.09-15.09,36.5-22.45,57.55-18.93c7.5,1.25,15.15,1.32,22.67,0.22c20.68-3.04,41.61,3.4,56.39,18.18l5.02,5.02
			c14.43,14.43,20.79,34.83,17.95,55.04c-3.2,22.77,4.38,46.77,22.76,63.65c27.67,25.42,70.84,25.31,98.38-0.26
			c18.42-17.1,25.87-41.39,22.35-64.3c-3.2-20.81,4.18-41.86,19.07-56.75l1.96-1.96c14.71-14.71,35.52-21.98,56.06-18.74
			c22.17,3.5,45.65-3.27,62.7-20.31C692.86,179.86,692.02,131.97,661.23,103.94z"/>
		<path class="st32" d="M660.6,103.24c-27.76-25.27-70.87-24.97-98.3,0.65c-18.46,17.24-25.82,41.73-22.09,64.75
			c3.38,20.85-3.94,42.01-18.87,56.94l-1.5,1.5c-15,15-36.28,21.49-57.25,18.32c-7.62-1.15-15.4-1.1-23.01,0.18
			c-20.83,3.48-42.08-2.83-57.02-17.76l-2.23-2.23c-14.94-14.94-22.26-36.1-18.88-56.95c3.85-23.76-4.11-49.08-23.9-66.39
			c-27.02-23.64-67.89-23.76-95.05-0.28c-19.71,17.04-27.84,41.97-24.4,65.53c2.95,20.23-3.37,40.7-17.82,55.15l-4.88,4.88
			c-14.45,14.45-34.92,20.77-55.15,17.82c-22.83-3.33-46.95,4.19-63.93,22.6c-25.33,27.46-25.48,70.33-0.33,97.96
			c28.03,30.79,75.92,31.63,105.03,2.52c17.31-17.31,24.03-41.25,20.16-63.71c-3.57-20.75,3.67-41.89,18.56-56.78l0.51-0.51
			c15.09-15.09,36.5-22.45,57.55-18.93c7.5,1.25,15.15,1.32,22.67,0.22c20.68-3.04,41.61,3.4,56.39,18.18l5.02,5.02
			c14.43,14.43,20.79,34.83,17.95,55.04c-3.2,22.77,4.38,46.77,22.76,63.65c27.67,25.42,70.84,25.31,98.38-0.26
			c18.42-17.1,25.87-41.39,22.35-64.3c-3.2-20.81,4.18-41.86,19.07-56.75l1.96-1.96c14.71-14.71,35.52-21.98,56.06-18.74
			c22.17,3.5,45.65-3.27,62.7-20.31C692.23,179.16,691.39,131.27,660.6,103.24z"/>
		<path class="st33" d="M659.97,102.54c-27.76-25.27-70.87-24.97-98.3,0.65c-18.46,17.24-25.82,41.73-22.09,64.75
			c3.38,20.85-3.94,42.01-18.87,56.94l-1.5,1.5c-15,15-36.28,21.49-57.25,18.32c-7.62-1.15-15.4-1.1-23.01,0.18
			c-20.83,3.48-42.08-2.83-57.02-17.76l-2.23-2.23c-14.94-14.94-22.26-36.1-18.88-56.95c3.85-23.76-4.11-49.08-23.9-66.39
			c-27.02-23.64-67.89-23.76-95.05-0.28c-19.71,17.04-27.84,41.97-24.4,65.53c2.95,20.23-3.37,40.7-17.82,55.15l-4.88,4.88
			c-14.45,14.45-34.92,20.77-55.15,17.82c-22.83-3.33-46.95,4.2-63.93,22.6c-25.33,27.46-25.48,70.33-0.33,97.96
			c28.03,30.79,75.92,31.63,105.03,2.52c17.31-17.31,24.03-41.25,20.16-63.71c-3.57-20.75,3.67-41.89,18.56-56.78l0.51-0.51
			c15.09-15.09,36.5-22.45,57.55-18.93c7.5,1.25,15.15,1.32,22.67,0.22c20.68-3.04,41.61,3.4,56.39,18.18l5.02,5.02
			c14.43,14.43,20.79,34.83,17.95,55.04c-3.2,22.77,4.38,46.77,22.76,63.65c27.67,25.42,70.84,25.31,98.38-0.26
			c18.42-17.1,25.87-41.39,22.35-64.3c-3.2-20.81,4.18-41.86,19.07-56.75l1.96-1.96c14.71-14.71,35.52-21.98,56.06-18.74
			c22.17,3.5,45.65-3.27,62.7-20.31C691.6,178.46,690.76,130.57,659.97,102.54z"/>
		<path class="st34" d="M659.34,101.84c-27.76-25.27-70.87-24.97-98.3,0.65c-18.46,17.24-25.82,41.73-22.09,64.75
			c3.38,20.85-3.94,42.01-18.87,56.94l-1.5,1.5c-15,15-36.28,21.49-57.25,18.32c-7.62-1.15-15.4-1.1-23.01,0.18
			c-20.83,3.48-42.08-2.83-57.02-17.76l-2.23-2.23c-14.94-14.94-22.26-36.1-18.88-56.95c3.85-23.76-4.11-49.08-23.9-66.39
			c-27.02-23.64-67.89-23.76-95.05-0.28c-19.71,17.04-27.84,41.97-24.4,65.53c2.95,20.23-3.37,40.7-17.82,55.15l-4.88,4.88
			c-14.45,14.45-34.92,20.77-55.15,17.82c-22.83-3.33-46.95,4.2-63.93,22.6c-25.33,27.46-25.48,70.33-0.33,97.96
			c28.03,30.79,75.92,31.63,105.03,2.52c17.31-17.31,24.03-41.25,20.16-63.71c-3.57-20.75,3.67-41.89,18.56-56.78l0.51-0.51
			c15.09-15.09,36.5-22.45,57.55-18.93c7.5,1.25,15.15,1.32,22.67,0.22c20.68-3.04,41.61,3.4,56.39,18.18l5.02,5.02
			c14.43,14.43,20.79,34.83,17.95,55.04c-3.2,22.77,4.38,46.77,22.76,63.65c27.67,25.42,70.84,25.31,98.38-0.26
			c18.42-17.1,25.87-41.39,22.35-64.3c-3.2-20.81,4.18-41.86,19.07-56.75l1.96-1.96c14.71-14.71,35.52-21.98,56.06-18.74
			c22.17,3.5,45.65-3.27,62.7-20.31C690.97,177.77,690.13,129.87,659.34,101.84z"/>
		<path id="XMLID_16_" class="st35" d="M658.71,101.14c-27.76-25.27-70.87-24.97-98.3,0.65c-18.46,17.24-25.82,41.73-22.08,64.75
			c3.38,20.85-3.94,42.01-18.87,56.94l-1.5,1.5c-15,15-36.28,21.49-57.25,18.32c-7.62-1.15-15.4-1.1-23.01,0.18
			c-20.83,3.48-42.08-2.83-57.02-17.76l-2.23-2.23c-14.94-14.94-22.26-36.1-18.88-56.95c3.85-23.76-4.11-49.08-23.9-66.39
			c-27.02-23.64-67.89-23.76-95.05-0.28c-19.71,17.04-27.84,41.97-24.4,65.53c2.95,20.23-3.37,40.7-17.82,55.15l-4.88,4.88
			c-14.45,14.45-34.92,20.77-55.15,17.82c-22.83-3.33-46.95,4.19-63.93,22.6c-25.33,27.46-25.48,70.33-0.33,97.96
			c28.03,30.79,75.92,31.63,105.03,2.52c17.31-17.31,24.03-41.25,20.16-63.71c-3.57-20.75,3.67-41.89,18.56-56.78l0.51-0.51
			c15.09-15.09,36.5-22.45,57.55-18.93c7.5,1.25,15.15,1.32,22.67,0.22c20.68-3.04,41.61,3.4,56.39,18.18l5.02,5.02
			c14.43,14.43,20.79,34.83,17.95,55.04c-3.2,22.77,4.38,46.77,22.76,63.65c27.67,25.42,70.84,25.31,98.38-0.26
			c18.42-17.1,25.87-41.39,22.35-64.3c-3.2-20.81,4.18-41.86,19.07-56.75l1.96-1.96c14.71-14.71,35.52-21.98,56.06-18.74
			c22.17,3.5,45.65-3.27,62.7-20.31C690.34,177.07,689.5,129.17,658.71,101.14z"/>
	</g>
	<g id="XMLID_329_">
		<linearGradient id="XMLID_21_" gradientUnits="userSpaceOnUse" x1="55.344" y1="237.5773" x2="682.4521" y2="237.5773">
			<stop  offset="0" style="stop-color:#FA920B"/>
			<stop  offset="1" style="stop-color:#FFC21F"/>
		</linearGradient>
		<path id="XMLID_885_" class="st36" d="M658.71,103.77c-27.76-25.27-70.87-24.97-98.3,0.65c-18.46,17.24-25.82,41.73-22.08,64.75
			c3.38,20.85-3.94,42.01-18.87,56.94l-1.5,1.5c-15,15-36.28,21.49-57.25,18.32c-7.62-1.15-15.4-1.1-23.01,0.18
			c-20.83,3.48-42.08-2.83-57.02-17.76l-2.23-2.23c-14.94-14.94-22.26-36.1-18.88-56.95c3.85-23.76-4.11-49.08-23.9-66.39
			c-27.02-23.64-67.89-23.76-95.05-0.28c-19.71,17.04-27.84,41.97-24.4,65.53c2.95,20.23-3.37,40.7-17.82,55.15l-4.88,4.88
			c-14.45,14.45-34.92,20.77-55.15,17.82c-22.83-3.33-46.95,4.19-63.93,22.6c-25.33,27.46-25.48,70.33-0.33,97.96
			c28.03,30.79,75.92,31.63,105.03,2.52c17.31-17.31,24.03-41.25,20.16-63.71c-3.57-20.75,3.67-41.89,18.56-56.78l0.51-0.51
			c15.09-15.09,36.5-22.45,57.55-18.93c7.5,1.25,15.15,1.32,22.67,0.22c20.68-3.04,41.61,3.4,56.39,18.18l5.02,5.02
			c14.43,14.43,20.79,34.83,17.95,55.04c-3.2,22.77,4.38,46.77,22.76,63.65c27.67,25.42,70.84,25.31,98.38-0.26
			c18.42-17.1,25.87-41.39,22.35-64.3c-3.2-20.81,4.18-41.86,19.07-56.75l1.96-1.96c14.71-14.71,35.52-21.98,56.06-18.74
			c22.17,3.5,45.65-3.27,62.7-20.31C690.34,179.7,689.5,131.8,658.71,103.77z"/>
		<linearGradient id="XMLID_23_" gradientUnits="userSpaceOnUse" x1="55.344" y1="234.9474" x2="682.4521" y2="234.9474">
			<stop  offset="0" style="stop-color:#FFC21F"/>
			<stop  offset="1" style="stop-color:#FA920B"/>
		</linearGradient>
		<path id="XMLID_883_" class="st37" d="M658.71,101.14c-27.76-25.27-70.87-24.97-98.3,0.65c-18.46,17.24-25.82,41.73-22.08,64.75
			c3.38,20.85-3.94,42.01-18.87,56.94l-1.5,1.5c-15,15-36.28,21.49-57.25,18.32c-7.62-1.15-15.4-1.1-23.01,0.18
			c-20.83,3.48-42.08-2.83-57.02-17.76l-2.23-2.23c-14.94-14.94-22.26-36.1-18.88-56.95c3.85-23.76-4.11-49.08-23.9-66.39
			c-27.02-23.64-67.89-23.76-95.05-0.28c-19.71,17.04-27.84,41.97-24.4,65.53c2.95,20.23-3.37,40.7-17.82,55.15l-4.88,4.88
			c-14.45,14.45-34.92,20.77-55.15,17.82c-22.83-3.33-46.95,4.19-63.93,22.6c-25.33,27.46-25.48,70.33-0.33,97.96
			c28.03,30.79,75.92,31.63,105.03,2.52c17.31-17.31,24.03-41.25,20.16-63.71c-3.57-20.75,3.67-41.89,18.56-56.78l0.51-0.51
			c15.09-15.09,36.5-22.45,57.55-18.93c7.5,1.25,15.15,1.32,22.67,0.22c20.68-3.04,41.61,3.4,56.39,18.18l5.02,5.02
			c14.43,14.43,20.79,34.83,17.95,55.04c-3.2,22.77,4.38,46.77,22.76,63.65c27.67,25.42,70.84,25.31,98.38-0.26
			c18.42-17.1,25.87-41.39,22.35-64.3c-3.2-20.81,4.18-41.86,19.07-56.75l1.96-1.96c14.71-14.71,35.52-21.98,56.06-18.74
			c22.17,3.5,45.65-3.27,62.7-20.31C690.34,177.07,689.5,129.17,658.71,101.14z"/>
	</g>
	<g id="XMLID_328_">
		<g id="XMLID_327_">
			<g id="XMLID_235_">
				<circle id="XMLID_15_" class="st1" cx="180.74" cy="367.92" r="63.84"/>
				<circle class="st38" cx="179.18" cy="366.37" r="63.84"/>
				<circle class="st39" cx="177.63" cy="364.81" r="63.84"/>
				<circle class="st40" cx="176.07" cy="363.25" r="63.84"/>
				<circle class="st41" cx="174.51" cy="361.7" r="63.84"/>
				<circle class="st42" cx="172.96" cy="360.14" r="63.84"/>
				<circle class="st43" cx="171.4" cy="358.59" r="63.84"/>
				<circle class="st44" cx="169.84" cy="357.03" r="63.84"/>
				<circle class="st45" cx="168.29" cy="355.47" r="63.84"/>
				<circle class="st46" cx="166.73" cy="353.92" r="63.84"/>
				<circle class="st47" cx="165.18" cy="352.36" r="63.84"/>
				<circle class="st48" cx="163.62" cy="350.8" r="63.84"/>
				<circle class="st49" cx="162.06" cy="349.25" r="63.84"/>
				<circle class="st50" cx="160.51" cy="347.69" r="63.84"/>
				<circle class="st51" cx="158.95" cy="346.14" r="63.84"/>
				<circle class="st52" cx="157.4" cy="344.58" r="63.84"/>
				<circle class="st53" cx="155.84" cy="343.02" r="63.84"/>
				<circle class="st54" cx="154.28" cy="341.47" r="63.84"/>
				<circle class="st55" cx="152.73" cy="339.91" r="63.84"/>
				<circle class="st56" cx="151.17" cy="338.36" r="63.84"/>
				<circle class="st57" cx="149.61" cy="336.8" r="63.84"/>
				<circle class="st58" cx="148.06" cy="335.24" r="63.84"/>
				<circle class="st59" cx="146.5" cy="333.69" r="63.84"/>
				<circle class="st60" cx="144.95" cy="332.13" r="63.84"/>
				<circle class="st61" cx="143.39" cy="330.57" r="63.84"/>
				<circle class="st62" cx="141.83" cy="329.02" r="63.84"/>
				<circle class="st63" cx="140.28" cy="327.46" r="63.84"/>
				<circle class="st64" cx="138.72" cy="325.91" r="63.84"/>
				<circle class="st65" cx="137.16" cy="324.35" r="63.84"/>
				<circle class="st66" cx="135.61" cy="322.79" r="63.84"/>
				<circle class="st67" cx="134.05" cy="321.24" r="63.84"/>
				<circle class="st68" cx="132.5" cy="319.68" r="63.84"/>
				<circle class="st69" cx="130.94" cy="318.12" r="63.84"/>
				<circle class="st70" cx="129.38" cy="316.57" r="63.84"/>
				<circle id="XMLID_14_" class="st71" cx="127.83" cy="315.01" r="63.84"/>
			</g>
			<g id="XMLID_229_" class="st72">
				<radialGradient id="XMLID_24_" cx="150.7375" cy="344.5933" r="75.6348" gradientUnits="userSpaceOnUse">
					<stop  offset="0" style="stop-color:#A59595"/>
					<stop  offset="3.435552e-03" style="stop-color:#A59696"/>
					<stop  offset="0.3217" style="stop-color:#CCC3C3"/>
					<stop  offset="0.6051" style="stop-color:#E8E4E4"/>
					<stop  offset="0.8409" style="stop-color:#F9F8F8"/>
					<stop  offset="1" style="stop-color:#FFFFFF"/>
				</radialGradient>
				<circle id="XMLID_234_" class="st73" cx="150.74" cy="344.59" r="75.63"/>
				<radialGradient id="XMLID_25_" cx="168.7442" cy="326.5866" r="75.6348" gradientUnits="userSpaceOnUse">
					<stop  offset="0" style="stop-color:#A59595"/>
					<stop  offset="3.435552e-03" style="stop-color:#A59696"/>
					<stop  offset="0.3217" style="stop-color:#CCC3C3"/>
					<stop  offset="0.6051" style="stop-color:#E8E4E4"/>
					<stop  offset="0.8409" style="stop-color:#F9F8F8"/>
					<stop  offset="1" style="stop-color:#FFFFFF"/>
				</radialGradient>
				<circle id="XMLID_233_" class="st74" cx="168.74" cy="326.59" r="75.63"/>
				<radialGradient id="XMLID_26_" cx="157.2854" cy="304.0916" r="75.6348" gradientUnits="userSpaceOnUse">
					<stop  offset="0" style="stop-color:#A59595"/>
					<stop  offset="3.435552e-03" style="stop-color:#A59696"/>
					<stop  offset="0.3217" style="stop-color:#CCC3C3"/>
					<stop  offset="0.6051" style="stop-color:#E8E4E4"/>
					<stop  offset="0.8409" style="stop-color:#F9F8F8"/>
					<stop  offset="1" style="stop-color:#FFFFFF"/>
				</radialGradient>
				<circle id="XMLID_232_" class="st75" cx="157.29" cy="304.09" r="75.63"/>
				<radialGradient id="XMLID_27_" cx="141.8573" cy="348.2898" r="75.6348" gradientUnits="userSpaceOnUse">
					<stop  offset="0" style="stop-color:#A59595"/>
					<stop  offset="3.435552e-03" style="stop-color:#A59696"/>
					<stop  offset="0.3217" style="stop-color:#CCC3C3"/>
					<stop  offset="0.6051" style="stop-color:#E8E4E4"/>
					<stop  offset="0.8409" style="stop-color:#F9F8F8"/>
					<stop  offset="1" style="stop-color:#FFFFFF"/>
				</radialGradient>
				<circle id="XMLID_231_" class="st76" cx="141.86" cy="348.29" r="75.63"/>
				<radialGradient id="XMLID_28_" cx="122.7593" cy="348.2898" r="75.6348" gradientUnits="userSpaceOnUse">
					<stop  offset="0" style="stop-color:#A59595"/>
					<stop  offset="3.435552e-03" style="stop-color:#A59696"/>
					<stop  offset="0.3217" style="stop-color:#CCC3C3"/>
					<stop  offset="0.6051" style="stop-color:#E8E4E4"/>
					<stop  offset="0.8409" style="stop-color:#F9F8F8"/>
					<stop  offset="1" style="stop-color:#FFFFFF"/>
				</radialGradient>
				<circle id="XMLID_230_" class="st77" cx="122.76" cy="348.29" r="75.63"/>
			</g>
			<g id="XMLID_226_">
				<radialGradient id="XMLID_29_" cx="117.4598" cy="278.4531" r="147.4233" gradientUnits="userSpaceOnUse">
					<stop  offset="0" style="stop-color:#FFFFFF"/>
					<stop  offset="1" style="stop-color:#C4BBBB"/>
				</radialGradient>
				<circle id="XMLID_228_" class="st78" cx="127.83" cy="315.01" r="63.84"/>
				<linearGradient id="XMLID_30_" gradientUnits="userSpaceOnUse" x1="68.3508" y1="315.012" x2="187.3037" y2="315.012">
					<stop  offset="0" style="stop-color:#C4BBBB"/>
					<stop  offset="1" style="stop-color:#FFFFFF"/>
				</linearGradient>
				<circle id="XMLID_227_" class="st79" cx="127.83" cy="315.01" r="59.48"/>
			</g>
		</g>
		<g id="XMLID_276_">
			<g id="XMLID_161_">
				<circle id="XMLID_13_" class="st1" cx="340.89" cy="207.5" r="63.84"/>
				<circle class="st38" cx="339.33" cy="205.94" r="63.84"/>
				<circle class="st39" cx="337.78" cy="204.39" r="63.84"/>
				<circle class="st40" cx="336.22" cy="202.83" r="63.84"/>
				<circle class="st41" cx="334.66" cy="201.28" r="63.84"/>
				<circle class="st42" cx="333.11" cy="199.72" r="63.84"/>
				<circle class="st43" cx="331.55" cy="198.16" r="63.84"/>
				<circle class="st44" cx="329.99" cy="196.61" r="63.84"/>
				<circle class="st45" cx="328.44" cy="195.05" r="63.84"/>
				<circle class="st46" cx="326.88" cy="193.49" r="63.84"/>
				<circle class="st47" cx="325.33" cy="191.94" r="63.84"/>
				<circle class="st48" cx="323.77" cy="190.38" r="63.84"/>
				<circle class="st49" cx="322.21" cy="188.83" r="63.84"/>
				<circle class="st50" cx="320.66" cy="187.27" r="63.84"/>
				<circle class="st51" cx="319.1" cy="185.71" r="63.84"/>
				<circle class="st52" cx="317.55" cy="184.16" r="63.84"/>
				<circle class="st53" cx="315.99" cy="182.6" r="63.84"/>
				<circle class="st54" cx="314.43" cy="181.04" r="63.84"/>
				<circle class="st55" cx="312.88" cy="179.49" r="63.84"/>
				<circle class="st56" cx="311.32" cy="177.93" r="63.84"/>
				<circle class="st57" cx="309.76" cy="176.38" r="63.84"/>
				<circle class="st58" cx="308.21" cy="174.82" r="63.84"/>
				<circle class="st59" cx="306.65" cy="173.26" r="63.84"/>
				<circle class="st60" cx="305.1" cy="171.71" r="63.84"/>
				<circle class="st61" cx="303.54" cy="170.15" r="63.84"/>
				<circle class="st62" cx="301.98" cy="168.6" r="63.84"/>
				<circle class="st63" cx="300.43" cy="167.04" r="63.84"/>
				<circle class="st64" cx="298.87" cy="165.48" r="63.84"/>
				<circle class="st65" cx="297.31" cy="163.93" r="63.84"/>
				<circle class="st66" cx="295.76" cy="162.37" r="63.84"/>
				<circle class="st67" cx="294.2" cy="160.81" r="63.84"/>
				<circle class="st68" cx="292.65" cy="159.26" r="63.84"/>
				<circle class="st69" cx="291.09" cy="157.7" r="63.84"/>
				<circle class="st70" cx="289.53" cy="156.15" r="63.84"/>
				<circle id="XMLID_12_" class="st71" cx="287.98" cy="154.59" r="63.84"/>
			</g>
			<g id="XMLID_155_" class="st72">
				<radialGradient id="XMLID_31_" cx="302.1979" cy="181.7467" r="75.6348" gradientUnits="userSpaceOnUse">
					<stop  offset="0" style="stop-color:#A59595"/>
					<stop  offset="3.435552e-03" style="stop-color:#A59696"/>
					<stop  offset="0.3217" style="stop-color:#CCC3C3"/>
					<stop  offset="0.6051" style="stop-color:#E8E4E4"/>
					<stop  offset="0.8409" style="stop-color:#F9F8F8"/>
					<stop  offset="1" style="stop-color:#FFFFFF"/>
				</radialGradient>
				<circle id="XMLID_160_" class="st80" cx="302.2" cy="181.75" r="75.63"/>
				<radialGradient id="XMLID_32_" cx="320.2045" cy="163.7401" r="75.6348" gradientUnits="userSpaceOnUse">
					<stop  offset="0" style="stop-color:#A59595"/>
					<stop  offset="3.435552e-03" style="stop-color:#A59696"/>
					<stop  offset="0.3217" style="stop-color:#CCC3C3"/>
					<stop  offset="0.6051" style="stop-color:#E8E4E4"/>
					<stop  offset="0.8409" style="stop-color:#F9F8F8"/>
					<stop  offset="1" style="stop-color:#FFFFFF"/>
				</radialGradient>
				<circle id="XMLID_159_" class="st81" cx="320.2" cy="163.74" r="75.63"/>
				<radialGradient id="XMLID_33_" cx="308.7458" cy="141.2451" r="75.6348" gradientUnits="userSpaceOnUse">
					<stop  offset="0" style="stop-color:#A59595"/>
					<stop  offset="3.435552e-03" style="stop-color:#A59696"/>
					<stop  offset="0.3217" style="stop-color:#CCC3C3"/>
					<stop  offset="0.6051" style="stop-color:#E8E4E4"/>
					<stop  offset="0.8409" style="stop-color:#F9F8F8"/>
					<stop  offset="1" style="stop-color:#FFFFFF"/>
				</radialGradient>
				<circle id="XMLID_158_" class="st82" cx="308.75" cy="141.25" r="75.63"/>
				<radialGradient id="XMLID_34_" cx="293.3176" cy="185.4433" r="75.6348" gradientUnits="userSpaceOnUse">
					<stop  offset="0" style="stop-color:#A59595"/>
					<stop  offset="3.435552e-03" style="stop-color:#A59696"/>
					<stop  offset="0.3217" style="stop-color:#CCC3C3"/>
					<stop  offset="0.6051" style="stop-color:#E8E4E4"/>
					<stop  offset="0.8409" style="stop-color:#F9F8F8"/>
					<stop  offset="1" style="stop-color:#FFFFFF"/>
				</radialGradient>
				<circle id="XMLID_157_" class="st83" cx="293.32" cy="185.44" r="75.63"/>
				<radialGradient id="XMLID_35_" cx="274.2198" cy="185.4433" r="75.6348" gradientUnits="userSpaceOnUse">
					<stop  offset="0" style="stop-color:#A59595"/>
					<stop  offset="3.435552e-03" style="stop-color:#A59696"/>
					<stop  offset="0.3217" style="stop-color:#CCC3C3"/>
					<stop  offset="0.6051" style="stop-color:#E8E4E4"/>
					<stop  offset="0.8409" style="stop-color:#F9F8F8"/>
					<stop  offset="1" style="stop-color:#FFFFFF"/>
				</radialGradient>
				<circle id="XMLID_156_" class="st84" cx="274.22" cy="185.44" r="75.63"/>
			</g>
			<g id="XMLID_152_">
				<radialGradient id="XMLID_36_" cx="278.9738" cy="115.4839" r="165.9047" gradientUnits="userSpaceOnUse">
					<stop  offset="0" style="stop-color:#FFFFFF"/>
					<stop  offset="1" style="stop-color:#C4BBBB"/>
				</radialGradient>
				<circle id="XMLID_154_" class="st85" cx="287.98" cy="154.86" r="63.84"/>
				<linearGradient id="XMLID_37_" gradientUnits="userSpaceOnUse" x1="228.5007" y1="154.8621" x2="347.4536" y2="154.8621">
					<stop  offset="0" style="stop-color:#C4BBBB"/>
					<stop  offset="1" style="stop-color:#FFFFFF"/>
				</linearGradient>
				<circle id="XMLID_153_" class="st86" cx="287.98" cy="154.86" r="59.48"/>
			</g>
		</g>
		<g id="XMLID_247_">
			<g id="XMLID_111_">
				<circle id="XMLID_11_" class="st1" cx="502.85" cy="367.88" r="63.84"/>
				<circle class="st38" cx="501.3" cy="366.33" r="63.84"/>
				<circle class="st39" cx="499.74" cy="364.77" r="63.84"/>
				<circle class="st40" cx="498.18" cy="363.21" r="63.84"/>
				<circle class="st41" cx="496.63" cy="361.66" r="63.84"/>
				<circle class="st42" cx="495.07" cy="360.1" r="63.84"/>
				<circle class="st43" cx="493.52" cy="358.54" r="63.84"/>
				<circle class="st44" cx="491.96" cy="356.99" r="63.84"/>
				<circle class="st45" cx="490.4" cy="355.43" r="63.84"/>
				<circle class="st46" cx="488.85" cy="353.88" r="63.84"/>
				<circle class="st47" cx="487.29" cy="352.32" r="63.84"/>
				<circle class="st48" cx="485.73" cy="350.76" r="63.84"/>
				<circle class="st49" cx="484.18" cy="349.21" r="63.84"/>
				<circle class="st50" cx="482.62" cy="347.65" r="63.84"/>
				<circle class="st51" cx="481.07" cy="346.1" r="63.84"/>
				<circle class="st52" cx="479.51" cy="344.54" r="63.84"/>
				<circle class="st53" cx="477.95" cy="342.98" r="63.84"/>
				
					<ellipse transform="matrix(0.7071 -0.7071 0.7071 0.7071 -101.8915 436.865)" class="st54" cx="476.4" cy="341.43" rx="63.84" ry="63.84"/>
				<circle class="st55" cx="474.84" cy="339.87" r="63.84"/>
				<circle class="st56" cx="473.28" cy="338.31" r="63.84"/>
				<circle class="st57" cx="471.73" cy="336.76" r="63.84"/>
				<circle class="st58" cx="470.17" cy="335.2" r="63.84"/>
				<circle class="st59" cx="468.62" cy="333.65" r="63.84"/>
				<circle class="st60" cx="467.06" cy="332.09" r="63.84"/>
				<circle class="st61" cx="465.5" cy="330.53" r="63.84"/>
				<circle class="st62" cx="463.95" cy="328.98" r="63.84"/>
				<circle class="st63" cx="462.39" cy="327.42" r="63.84"/>
				<circle class="st64" cx="460.83" cy="325.86" r="63.84"/>
				<circle class="st65" cx="459.28" cy="324.31" r="63.84"/>
				<circle class="st66" cx="457.72" cy="322.75" r="63.84"/>
				<circle class="st67" cx="456.17" cy="321.2" r="63.84"/>
				<circle class="st68" cx="454.61" cy="319.64" r="63.84"/>
				<circle class="st69" cx="453.05" cy="318.08" r="63.84"/>
				<circle class="st70" cx="451.5" cy="316.53" r="63.84"/>
				<circle id="XMLID_10_" class="st71" cx="449.94" cy="314.97" r="63.84"/>
			</g>
			<g id="XMLID_105_" class="st72">
				<radialGradient id="XMLID_38_" cx="467.0289" cy="347.3873" r="75.6348" gradientUnits="userSpaceOnUse">
					<stop  offset="0" style="stop-color:#A59595"/>
					<stop  offset="3.435552e-03" style="stop-color:#A59696"/>
					<stop  offset="0.3217" style="stop-color:#CCC3C3"/>
					<stop  offset="0.6051" style="stop-color:#E8E4E4"/>
					<stop  offset="0.8409" style="stop-color:#F9F8F8"/>
					<stop  offset="1" style="stop-color:#FFFFFF"/>
				</radialGradient>
				<circle id="XMLID_110_" class="st87" cx="467.03" cy="347.39" r="75.63"/>
				<radialGradient id="XMLID_39_" cx="485.0356" cy="329.3807" r="75.6348" gradientUnits="userSpaceOnUse">
					<stop  offset="0" style="stop-color:#A59595"/>
					<stop  offset="3.435552e-03" style="stop-color:#A59696"/>
					<stop  offset="0.3217" style="stop-color:#CCC3C3"/>
					<stop  offset="0.6051" style="stop-color:#E8E4E4"/>
					<stop  offset="0.8409" style="stop-color:#F9F8F8"/>
					<stop  offset="1" style="stop-color:#FFFFFF"/>
				</radialGradient>
				<circle id="XMLID_109_" class="st88" cx="485.04" cy="329.38" r="75.63"/>
				<radialGradient id="XMLID_40_" cx="473.5768" cy="306.8857" r="75.6348" gradientUnits="userSpaceOnUse">
					<stop  offset="0" style="stop-color:#A59595"/>
					<stop  offset="3.435552e-03" style="stop-color:#A59696"/>
					<stop  offset="0.3217" style="stop-color:#CCC3C3"/>
					<stop  offset="0.6051" style="stop-color:#E8E4E4"/>
					<stop  offset="0.8409" style="stop-color:#F9F8F8"/>
					<stop  offset="1" style="stop-color:#FFFFFF"/>
				</radialGradient>
				<circle id="XMLID_108_" class="st89" cx="473.58" cy="306.89" r="75.63"/>
				<radialGradient id="XMLID_41_" cx="458.1487" cy="351.0839" r="75.6348" gradientUnits="userSpaceOnUse">
					<stop  offset="0" style="stop-color:#A59595"/>
					<stop  offset="3.435552e-03" style="stop-color:#A59696"/>
					<stop  offset="0.3217" style="stop-color:#CCC3C3"/>
					<stop  offset="0.6051" style="stop-color:#E8E4E4"/>
					<stop  offset="0.8409" style="stop-color:#F9F8F8"/>
					<stop  offset="1" style="stop-color:#FFFFFF"/>
				</radialGradient>
				<circle id="XMLID_107_" class="st90" cx="458.15" cy="351.08" r="75.63"/>
				<radialGradient id="XMLID_42_" cx="439.0508" cy="351.0839" r="75.6348" gradientUnits="userSpaceOnUse">
					<stop  offset="0" style="stop-color:#A59595"/>
					<stop  offset="3.435552e-03" style="stop-color:#A59696"/>
					<stop  offset="0.3217" style="stop-color:#CCC3C3"/>
					<stop  offset="0.6051" style="stop-color:#E8E4E4"/>
					<stop  offset="0.8409" style="stop-color:#F9F8F8"/>
					<stop  offset="1" style="stop-color:#FFFFFF"/>
				</radialGradient>
				<circle id="XMLID_106_" class="st91" cx="439.05" cy="351.08" r="75.63"/>
			</g>
			<g id="XMLID_102_">
				<radialGradient id="XMLID_43_" cx="431.7573" cy="266.8124" r="153.8415" gradientUnits="userSpaceOnUse">
					<stop  offset="0" style="stop-color:#FFFFFF"/>
					<stop  offset="1" style="stop-color:#E3D8D8"/>
				</radialGradient>
				<circle id="XMLID_104_" class="st92" cx="449.76" cy="315.01" r="63.84"/>
				<linearGradient id="XMLID_44_" gradientUnits="userSpaceOnUse" x1="390.2876" y1="315.012" x2="509.2405" y2="315.012">
					<stop  offset="0" style="stop-color:#C4BBBB"/>
					<stop  offset="1" style="stop-color:#FFFFFF"/>
				</linearGradient>
				<circle id="XMLID_103_" class="st93" cx="449.76" cy="315.01" r="59.48"/>
			</g>
		</g>
		<g id="XMLID_246_">
			<g id="XMLID_210_">
				<circle id="XMLID_9_" class="st1" cx="662.83" cy="207.77" r="63.84"/>
				<circle class="st38" cx="661.27" cy="206.22" r="63.84"/>
				<circle class="st39" cx="659.71" cy="204.66" r="63.84"/>
				<circle class="st40" cx="658.16" cy="203.1" r="63.84"/>
				<circle class="st41" cx="656.6" cy="201.55" r="63.84"/>
				<circle class="st42" cx="655.04" cy="199.99" r="63.84"/>
				<circle class="st43" cx="653.49" cy="198.44" r="63.84"/>
				<circle class="st44" cx="651.93" cy="196.88" r="63.84"/>
				<circle class="st45" cx="650.38" cy="195.32" r="63.84"/>
				<circle class="st46" cx="648.82" cy="193.77" r="63.84"/>
				<circle class="st47" cx="647.26" cy="192.21" r="63.84"/>
				<circle class="st48" cx="645.71" cy="190.65" r="63.84"/>
				<circle class="st49" cx="644.15" cy="189.1" r="63.84"/>
				<circle class="st50" cx="642.59" cy="187.54" r="63.84"/>
				<circle class="st51" cx="641.04" cy="185.99" r="63.84"/>
				<circle class="st52" cx="639.48" cy="184.43" r="63.84"/>
				<circle class="st53" cx="637.93" cy="182.87" r="63.84"/>
				<circle class="st54" cx="636.37" cy="181.32" r="63.84"/>
				<circle class="st55" cx="634.81" cy="179.76" r="63.84"/>
				<circle class="st56" cx="633.26" cy="178.21" r="63.84"/>
				<circle class="st57" cx="631.7" cy="176.65" r="63.84"/>
				<circle class="st58" cx="630.14" cy="175.09" r="63.84"/>
				<circle class="st59" cx="628.59" cy="173.54" r="63.84"/>
				<circle class="st60" cx="627.03" cy="171.98" r="63.84"/>
				<circle class="st61" cx="625.48" cy="170.42" r="63.84"/>
				<circle class="st62" cx="623.92" cy="168.87" r="63.84"/>
				<circle class="st63" cx="622.36" cy="167.31" r="63.84"/>
				<circle class="st64" cx="620.81" cy="165.76" r="63.84"/>
				<circle class="st65" cx="619.25" cy="164.2" r="63.84"/>
				<circle class="st66" cx="617.69" cy="162.64" r="63.84"/>
				<circle class="st67" cx="616.14" cy="161.09" r="63.84"/>
				<circle class="st68" cx="614.58" cy="159.53" r="63.84"/>
				<circle class="st69" cx="613.03" cy="157.97" r="63.84"/>
				<circle class="st70" cx="611.47" cy="156.42" r="63.84"/>
				<circle id="XMLID_7_" class="st71" cx="609.91" cy="154.86" r="63.84"/>
			</g>
			<g id="XMLID_1_" class="st72">
				<radialGradient id="XMLID_45_" cx="622.2045" cy="184.3891" r="75.6348" gradientUnits="userSpaceOnUse">
					<stop  offset="0" style="stop-color:#A59595"/>
					<stop  offset="3.435552e-03" style="stop-color:#A59696"/>
					<stop  offset="0.3217" style="stop-color:#CCC3C3"/>
					<stop  offset="0.6051" style="stop-color:#E8E4E4"/>
					<stop  offset="0.8409" style="stop-color:#F9F8F8"/>
					<stop  offset="1" style="stop-color:#FFFFFF"/>
				</radialGradient>
				<circle id="XMLID_6_" class="st94" cx="622.2" cy="184.39" r="75.63"/>
				<radialGradient id="XMLID_46_" cx="640.2111" cy="166.3824" r="75.6348" gradientUnits="userSpaceOnUse">
					<stop  offset="0" style="stop-color:#A59595"/>
					<stop  offset="3.435552e-03" style="stop-color:#A59696"/>
					<stop  offset="0.3217" style="stop-color:#CCC3C3"/>
					<stop  offset="0.6051" style="stop-color:#E8E4E4"/>
					<stop  offset="0.8409" style="stop-color:#F9F8F8"/>
					<stop  offset="1" style="stop-color:#FFFFFF"/>
				</radialGradient>
				<circle id="XMLID_5_" class="st95" cx="640.21" cy="166.38" r="75.63"/>
				<radialGradient id="XMLID_47_" cx="628.7523" cy="143.8875" r="75.6348" gradientUnits="userSpaceOnUse">
					<stop  offset="0" style="stop-color:#A59595"/>
					<stop  offset="3.435552e-03" style="stop-color:#A59696"/>
					<stop  offset="0.3217" style="stop-color:#CCC3C3"/>
					<stop  offset="0.6051" style="stop-color:#E8E4E4"/>
					<stop  offset="0.8409" style="stop-color:#F9F8F8"/>
					<stop  offset="1" style="stop-color:#FFFFFF"/>
				</radialGradient>
				<circle id="XMLID_4_" class="st96" cx="628.75" cy="143.89" r="75.63"/>
				<radialGradient id="XMLID_48_" cx="613.3242" cy="188.0856" r="75.6348" gradientUnits="userSpaceOnUse">
					<stop  offset="0" style="stop-color:#A59595"/>
					<stop  offset="3.435552e-03" style="stop-color:#A59696"/>
					<stop  offset="0.3217" style="stop-color:#CCC3C3"/>
					<stop  offset="0.6051" style="stop-color:#E8E4E4"/>
					<stop  offset="0.8409" style="stop-color:#F9F8F8"/>
					<stop  offset="1" style="stop-color:#FFFFFF"/>
				</radialGradient>
				<circle id="XMLID_3_" class="st97" cx="613.32" cy="188.09" r="75.63"/>
				<radialGradient id="XMLID_49_" cx="594.2263" cy="188.0856" r="75.6348" gradientUnits="userSpaceOnUse">
					<stop  offset="0" style="stop-color:#A59595"/>
					<stop  offset="3.435552e-03" style="stop-color:#A59696"/>
					<stop  offset="0.3217" style="stop-color:#CCC3C3"/>
					<stop  offset="0.6051" style="stop-color:#E8E4E4"/>
					<stop  offset="0.8409" style="stop-color:#F9F8F8"/>
					<stop  offset="1" style="stop-color:#FFFFFF"/>
				</radialGradient>
				<circle id="XMLID_2_" class="st98" cx="594.23" cy="188.09" r="75.63"/>
			</g>
			<g id="XMLID_8_">
				<radialGradient id="XMLID_50_" cx="596.9091" cy="114.7564" r="174.6101" gradientUnits="userSpaceOnUse">
					<stop  offset="0" style="stop-color:#FFFFFF"/>
					<stop  offset="1" style="stop-color:#E3D8D8"/>
				</radialGradient>
				<circle id="XMLID_17_" class="st99" cx="609.91" cy="154.86" r="63.84"/>
				<linearGradient id="XMLID_51_" gradientUnits="userSpaceOnUse" x1="550.4375" y1="154.8621" x2="669.3904" y2="154.8621">
					<stop  offset="0" style="stop-color:#C4BBBB"/>
					<stop  offset="1" style="stop-color:#FFFFFF"/>
				</linearGradient>
				<circle id="XMLID_22_" class="st100" cx="609.91" cy="154.86" r="59.48"/>
			</g>
		</g>
	</g>
	<text transform="matrix(1 0 0 1 93.6667 323.0003)" class="st101 st102 st103">Register</text>
	<text transform="matrix(1 0 0 1 247.0713 149)"><tspan x="0" y="0" class="st101 st102 st103">Customize</tspan><tspan x="17.38" y="25.2" class="st101 st102 st103">Order</tspan></text>
	<text transform="matrix(1 0 0 1 433.6761 306.8857)"><tspan x="0" y="0" class="st101 st102 st103">Pick </tspan><tspan x="-24.21" y="25.2" class="st101 st102 st103">your Tailor</tspan></text>
	<text transform="matrix(1 0 0 1 587.3337 160.3335)" class="st101 st102 st103">Done!</text>
</g>
<g id="DESIGNED_BY_FREEPIK">
</g>
</svg>
